<?xml version="1.0" encoding="UTF-8"?>
<svg id="_图层_1" data-name="图层 1" xmlns="http://www.w3.org/2000/svg" xmlns:xlink="http://www.w3.org/1999/xlink" viewBox="0 0 264.76 241.48">
  <defs>
    <style>
      .cls-1 {
        fill: none;
      }

      .cls-2, .cls-3, .cls-4, .cls-5, .cls-6, .cls-7, .cls-8, .cls-9 {
        fill-rule: evenodd;
      }

      .cls-2, .cls-5 {
        fill: #7acbf5;
      }

      .cls-3, .cls-4 {
        fill: #eaacb8;
      }

      .cls-4, .cls-5 {
        opacity: .8;
      }

      .cls-6 {
        fill: url(#_未命名的渐变);
      }

      .cls-7 {
        fill: #afbcd8;
      }

      .cls-8 {
        fill: rgba(122, 203, 245, .8);
      }

      .cls-9 {
        fill: rgba(175, 188, 216, .8);
      }

      .cls-10 {
        clip-path: url(#clippath);
      }
    </style>
    <clipPath id="clippath">
      <circle class="cls-1" cx="144.98" cy="219.17" r="14.28"/>
    </clipPath>
    <radialGradient id="_未命名的渐变" data-name="未命名的渐变" cx="-458.83" cy="721.44" fx="-458.83" fy="721.44" r="1.09" gradientTransform="translate(-18406.29 92191.33) rotate(43.49) scale(110.3 -110.27) skewX(.37)" gradientUnits="userSpaceOnUse">
      <stop offset="0" stop-color="#fff"/>
      <stop offset="0" stop-color="#ffebeb"/>
      <stop offset=".54" stop-color="#eaacb8"/>
      <stop offset="1" stop-color="#7acbf5"/>
    </radialGradient>
  </defs>
  <g>
    <g>
      <path id="_矩形" data-name=" 矩形" class="cls-3" d="M251.57,163.05h-49.78c-7.33,0-13.19-5.55-13.19-12.39h0c0-6.85,5.85-12.39,13.19-12.39h49.78c7.23,0,13.19,5.55,13.19,12.39h0c0,6.85-5.95,12.39-13.19,12.39h0Z"/>
      <g id="_矩形-2" data-name=" 矩形-2">
        <path class="cls-4" d="M247.41,205.39h-42.54c-6.25,0-11.31-5.55-11.31-12.39h0c0-6.85,5.06-12.39,11.31-12.39h42.54c6.25,0,11.31,5.55,11.31,12.39h0c0,6.85-5.06,12.39-11.31,12.39h0Z"/>
      </g>
      <path id="_矩形-3" data-name=" 矩形-3" class="cls-3" d="M188.51,228.59v-76.35c0-7.14,5.85-12.89,13.09-12.89s13.09,5.75,13.09,12.89v76.35c0,7.14-5.85,12.89-13.09,12.89s-13.09-5.75-13.09-12.89Z"/>
    </g>
    <g>
      <g class="cls-10">
        <g>
          <path class="cls-7" d="M143.59,151.64c7.14,0,12.89,5.75,12.89,12.89v55.63c0,7.14-5.75,12.89-12.89,12.89s-12.89-5.75-12.89-12.89v-55.63c0-7.14,5.75-12.89,12.89-12.89Z"/>
          <path class="cls-7" d="M130.8,221.95c0-6.45,6.25-11.61,13.98-11.61h8.23c7.73,0,13.98,5.16,13.98,11.61s-6.25,11.61-13.98,11.61h-8.23c-7.73,0-13.98-5.16-13.98-11.61h0Z"/>
        </g>
      </g>
      <path class="cls-7" d="M131.78,221.95c0-6.45,6.25-11.61,13.98-11.61h8.23c7.73,0,13.98,5.16,13.98,11.61s-6.25,11.61-13.98,11.61h-8.23c-7.73,0-13.98-5.16-13.98-11.61h0Z"/>
      <path id="_矩形-4" data-name=" 矩形-4" class="cls-9" d="M126.44,173.46h34.01c7.14,0,12.99,5.85,12.99,12.99s-5.85,12.99-12.99,12.99h-34.01c-7.14,0-12.99-5.85-12.99-12.99s5.85-12.99,12.99-12.99Z"/>
      <path class="cls-7" d="M143.59,150.45c7.14,0,12.89,5.75,12.89,12.89v55.63c0,7.14-5.75,12.89-12.89,12.89s-12.89-5.75-12.89-12.89v-55.63c0-7.14,5.75-12.89,12.89-12.89h0Z"/>
    </g>
    <g>
      <g>
        <path id="_矩形-5" data-name=" 矩形-5" class="cls-8" d="M41.35,200.43c5.55,4.46,13.58,3.77,18.34-1.59l35.7-40.36c4.36-4.96,3.96-12.59-.99-16.95-.2-.2-.4-.3-.5-.5-5.55-4.46-13.58-3.77-18.34,1.59l-35.7,40.36c-4.36,4.96-3.96,12.59.99,16.95.2.2.4.3.5.5Z"/>
        <path id="_矩形-8" data-name=" 矩形-8" class="cls-2" d="M86.07,137.96c7.23,0,13.09,5.85,13.09,13.09v77.15c0,7.23-5.85,13.09-13.09,13.09s-13.09-5.85-13.09-13.09v-77.15c0-7.23,5.85-13.09,13.09-13.09Z"/>
      </g>
      <g>
        <g id="_矩形-6" data-name=" 矩形-6">
          <path class="cls-5" d="M13.09,137.96c7.23,0,13.09,5.85,13.09,13.09v77.15c0,7.23-5.85,13.09-13.09,13.09s-13.09-5.85-13.09-13.09v-77.15c0-7.23,5.85-13.09,13.09-13.09h0Z"/>
        </g>
        <path id="_矩形-51" data-name=" 矩形-51" class="cls-2" d="M58.11,199.94c4.96-4.36,5.36-11.99.99-16.95l-35.7-40.36c-4.76-5.36-12.79-6.05-18.34-1.59-.2.2-.4.3-.5.5-4.96,4.36-5.36,11.99-.99,16.95l35.7,40.36c4.76,5.36,12.79,6.05,18.34,1.59.2-.2.4-.3.5-.5Z"/>
      </g>
    </g>
  </g>
  <g id="_编组-8" data-name=" 编组-8">
    <path id="_形状结合" data-name=" 形状结合" class="cls-6" d="M80.64,6.65L104.04.53c8.55-2.24,17.29,2.88,19.53,11.43.35,1.32.52,2.68.52,4.05v71.8c0,7.28-4.91,13.64-11.95,15.48l-23.39,6.12c-8.55,2.24-17.29-2.88-19.53-11.43-.35-1.32-.52-2.68-.52-4.05V22.13c0-7.28,4.91-13.64,11.95-15.48,0,0-.01,0-.01,0ZM20.2.53l23.39,6.12c7.04,1.84,11.95,8.2,11.95,15.48v71.8c0,8.84-7.16,16-16,16-1.37,0-2.73-.18-4.05-.52l-23.39-6.12c-7.04-1.84-11.95-8.2-11.95-15.48V16c0-8.83,7.16-16,16-16,1.37,0,2.73.18,4.05.52h0Z"/>
  </g>
</svg>