<?xml version="1.0" encoding="utf-8"?>
<!-- Generator: Adobe Illustrator 29.0.0, SVG Export Plug-In . SVG Version: 9.03 Build 54978)  -->
<svg version="1.0" id="_图层_1" xmlns="http://www.w3.org/2000/svg" xmlns:xlink="http://www.w3.org/1999/xlink" x="0px" y="0px"
	 viewBox="0 0 497.4 130.8" enable-background="new 0 0 497.4 130.8" xml:space="preserve">
<g>
	<g>
		<g>
			
				<path id="_矩形_00000181061782204729554240000013087613219101734571_" fill-rule="evenodd" clip-rule="evenodd" fill="#EAACB8" d="
				M479.7,33.5h-59.5c-8.8,0-15.8-6.6-15.8-14.8l0,0c0-8.2,7-14.8,15.8-14.8h59.5c8.7,0,15.8,6.6,15.8,14.8l0,0
				C495.4,26.9,488.3,33.5,479.7,33.5z"/>
			
				<path id="_矩形-2_00000075158831504956007190000008229106729971188874_" fill-rule="evenodd" clip-rule="evenodd" fill="#EAACB8" fill-opacity="0.8" d="
				M474.7,84.1h-50.8c-7.5,0-13.5-6.6-13.5-14.8l0,0c0-8.2,6-14.8,13.5-14.8h50.8c7.5,0,13.5,6.6,13.5,14.8l0,0
				C488.2,77.5,482.2,84.1,474.7,84.1L474.7,84.1z"/>
			
				<path id="_矩形-3_00000174559636494914578790000016359476152611930249_" fill-rule="evenodd" clip-rule="evenodd" fill="#EAACB8" d="
				M404.3,111.9V20.6c0-8.5,7-15.4,15.6-15.4c8.7,0,15.6,6.9,15.6,15.4v91.3c0,8.5-7,15.4-15.6,15.4
				C411.3,127.3,404.3,120.4,404.3,111.9z"/>
		</g>
		<g>
			<g>
				<defs>
					<circle id="SVGID_1_" cx="352.3" cy="100.6" r="17.1"/>
				</defs>
				<clipPath id="SVGID_00000150060110271456606160000001134744043312984452_">
					<use xlink:href="#SVGID_1_"  overflow="visible"/>
				</clipPath>
				<g clip-path="url(#SVGID_00000150060110271456606160000001134744043312984452_)">
					<g>
						<path fill-rule="evenodd" clip-rule="evenodd" fill="#AFBCD8" d="M350.6,19.9c8.5,0,15.4,6.9,15.4,15.4v66.5
							c0,8.5-6.9,15.4-15.4,15.4c-8.5,0-15.4-6.9-15.4-15.4V35.3C335.2,26.8,342.1,19.9,350.6,19.9z"/>
						<path fill-rule="evenodd" clip-rule="evenodd" fill="#AFBCD8" d="M335.3,103.9c0-7.7,7.5-13.9,16.7-13.9h9.8
							c9.2,0,16.7,6.2,16.7,13.9s-7.5,13.9-16.7,13.9H352C342.8,117.8,335.3,111.6,335.3,103.9z"/>
					</g>
				</g>
			</g>
			<path fill-rule="evenodd" clip-rule="evenodd" fill="#AFBCD8" d="M336.5,103.9c0-7.7,7.5-13.9,16.7-13.9h9.8
				c9.2,0,16.7,6.2,16.7,13.9s-7.5,13.9-16.7,13.9h-9.8C344,117.8,336.5,111.6,336.5,103.9z"/>
			
				<path id="_矩形-4_00000083084140516279023230000001688233196515427753_" fill-rule="evenodd" clip-rule="evenodd" fill="#AFBCD8" fill-opacity="0.8" d="
				M330.1,46h40.7c8.5,0,15.5,7,15.5,15.5s-7,15.5-15.5,15.5h-40.7c-8.5,0-15.5-7-15.5-15.5S321.6,46,330.1,46z"/>
			<path fill-rule="evenodd" clip-rule="evenodd" fill="#AFBCD8" d="M350.6,18.5c8.5,0,15.4,6.9,15.4,15.4v66.5
				c0,8.5-6.9,15.4-15.4,15.4c-8.5,0-15.4-6.9-15.4-15.4V33.9C335.2,25.3,342.1,18.5,350.6,18.5L350.6,18.5L350.6,18.5z"/>
		</g>
		<g>
			<g>
				
					<path id="_矩形-5_00000146496617944711014070000006656293353366970251_" fill-rule="evenodd" clip-rule="evenodd" fill="#7ACBF5" fill-opacity="0.8" d="
					M228.4,78.2c6.6,5.3,16.2,4.5,21.9-1.9L293,28.1c5.2-5.9,4.7-15.1-1.2-20.3c-0.2-0.2-0.5-0.4-0.6-0.6
					c-6.6-5.3-16.2-4.5-21.9,1.9l-42.7,48.2c-5.2,5.9-4.7,15.1,1.2,20.3C228,77.8,228.3,78,228.4,78.2z"/>
				
					<path id="_矩形-8_00000078765076846018101680000017679573187103158443_" fill-rule="evenodd" clip-rule="evenodd" fill="#7ACBF5" d="
					M281.9,3.5c8.7,0,15.6,7,15.6,15.6v92.2c0,8.7-7,15.6-15.6,15.6c-8.7,0-15.6-7-15.6-15.6V19.2C266.2,10.5,273.2,3.5,281.9,3.5z"
					/>
			</g>
			<g>
				
					<path id="_矩形-6_00000181050930908893121820000001270509119270636710_" fill-rule="evenodd" clip-rule="evenodd" fill="#7ACBF5" fill-opacity="0.8" d="
					M194.6,3.5c8.7,0,15.6,7,15.6,15.6v92.2c0,8.7-7,15.6-15.6,15.6c-8.7,0-15.6-7-15.6-15.6V19.2C179,10.5,186,3.5,194.6,3.5z"/>
				
					<path id="_矩形-51_00000125569314180480167140000004117007039897430659_" fill-rule="evenodd" clip-rule="evenodd" fill="#7ACBF5" d="
					M248.4,77.6c5.9-5.2,6.4-14.3,1.2-20.3L207,9.1c-5.7-6.4-15.3-7.2-21.9-1.9c-0.2,0.2-0.5,0.4-0.6,0.6
					c-5.9,5.2-6.4,14.3-1.2,20.3l42.7,48.2c5.7,6.4,15.3,7.2,21.9,1.9C248.1,78,248.3,77.8,248.4,77.6z"/>
			</g>
		</g>
	</g>
	<g id="_编组-8_00000116919981966902956400000011671314361185129130_">
		
			<radialGradient id="_形状结合_00000121251385959429863700000015502642933301409930_" cx="-343.2047" cy="664.3372" r="1.221" gradientTransform="matrix(80.022 75.9116 76.4077 -79.5101 -23293.9375 78876.9453)" gradientUnits="userSpaceOnUse">
			<stop  offset="0" style="stop-color:#FFFFFF"/>
			<stop  offset="0" style="stop-color:#FFEBEB"/>
			<stop  offset="0.54" style="stop-color:#EAACB8"/>
			<stop  offset="1" style="stop-color:#7ACBF5"/>
		</radialGradient>
		
			<path id="_形状结合_00000112606546571015520760000004017334652216073611_" fill-rule="evenodd" clip-rule="evenodd" fill="url(#_形状结合_00000121251385959429863700000015502642933301409930_)" d="
			M92.2,11.2l26.2-6.9c9.6-2.5,19.4,3.2,21.9,12.8c0.4,1.5,0.6,3,0.6,4.5v80.4c0,8.2-5.5,15.3-13.4,17.3l-26.2,6.9
			c-9.6,2.5-19.4-3.2-21.9-12.8c-0.4-1.5-0.6-3-0.6-4.5V28.5C78.8,20.3,84.3,13.2,92.2,11.2L92.2,11.2z M24.5,4.3l26.2,6.9
			c7.9,2.1,13.4,9.2,13.4,17.3v80.4c0,9.9-8,17.9-17.9,17.9c-1.5,0-3.1-0.2-4.5-0.6l-26.2-6.9c-7.9-2.1-13.4-9.2-13.4-17.3V21.6
			c0-9.9,8-17.9,17.9-17.9C21.5,3.7,23,3.9,24.5,4.3L24.5,4.3L24.5,4.3z"/>
	</g>
</g>
</svg>
