<?xml version="1.0" encoding="UTF-8" standalone="no"?>
<svg
   width="64"
   height="64"
   fill="none"
   viewBox="0 0 64 64"
   version="1.1"
   xmlns="http://www.w3.org/2000/svg"
   xmlns:svg="http://www.w3.org/2000/svg">
  <defs
     id="defs4">
    <linearGradient
       id="a"
       x1="3.98138"
       x2="62.686798"
       y1="4.22438"
       y2="62.929298"
       gradientUnits="userSpaceOnUse"
       gradientTransform="translate(0,-0.0021)">
      <stop
         offset="0.28999999"
         stop-color="#009AE5"
         id="stop1"
         style="stop-color:#ffffff;stop-opacity:1;" />
      <stop
         offset="0.69999999"
         stop-color="#00D980"
         id="stop2"
         style="stop-color:#9b59d0;stop-opacity:1;" />
    </linearGradient>
    <linearGradient
       id="b"
       x1="56.378799"
       x2="2.7525799"
       y1="-0.71737999"
       y2="24.1455"
       gradientUnits="userSpaceOnUse">
      <stop
         offset="0.30000001"
         stop-color="#FF318C"
         id="stop3"
         style="stop-color:#fff433;stop-opacity:1;" />
      <stop
         offset="0.54000002"
         stop-color="#009AE5"
         id="stop4"
         style="stop-color:#ffffff;stop-opacity:1;" />
    </linearGradient>
  </defs>
  <path
     fill="url(#a)"
     d="M 64,59.9273 V 25.959 c 0,-1.6291 -0.9711,-3.1017 -2.4681,-3.7434 L 24.0413,6.14752 C 23.5345,5.9305 22.9882,5.81821 22.4367,5.81821 H 4.07273 C 1.82342,5.81821 0,7.64163 0,9.89094 V 27.8569 c 0,0.8047 0.238545,1.5913 0.685382,2.261 L 22.0887,62.1865 c 0.7552,1.1322 2.0265,1.8118 3.3874,1.8118 L 59.9273,64 C 62.1766,64 64,62.1766 64,59.9273 Z"
     id="path5"
     style="fill:url(#a)" />
  <path
     fill="url(#b)"
     d="M 58.1818,14.5193 V 4.07273 C 58.1818,1.82342 56.3584,0 54.1091,0 H 41.0164 c -0.1925,0 -0.3851,0.013964 -0.576,0.040727 L 3.49673,5.3184 C 1.49004,5.60465 0,7.32334 0,9.34982 V 25.0228 c 0,2.2499 1.824,4.0733 4.07389,4.0728 L 22.6124,29.0909 c 0.4375,0 0.8721,-0.0704 1.2869,-0.2089 L 55.3972,18.3825 c 1.6629,-0.5544 2.7846,-2.1108 2.7846,-3.8638 z"
     id="path6"
     style="fill:url(#b)" />
  <path
     fill="#FF318C"
     d="M 58.1814,15.9476 58.1797,4.07215 C 58.1797,1.82342 56.3562,0 54.1069,0 H 42.6003 C 41.4117,0 40.2818,0.519564 39.508,1.42196 L 6.79872,39.5834 C 6.16629,40.3217 5.81836,41.262 5.81836,42.2342 v 11.8755 c 0,2.2493 1.82342,4.0727 4.07273,4.0727 H 21.3994 c 1.1887,0 2.3186,-0.5196 3.0924,-1.422 L 57.201,18.599 c 0.6331,-0.7383 0.9804,-1.6786 0.9804,-2.6514 z"
     id="path7"
     style="fill:#fff433;fill-opacity:1" />
  <path
     fill="#000000"
     d="M 52,12 H 12 v 40 h 40 z"
     id="path8" />
  <path
     id="path9"
     d="m 40.51829,15.0989 -3.86523,1.035162 1.17382,4.380854 -4.38085,-1.173824 -1.03516,3.863277 4.38281,1.173829 -6.19727,6.197262 a 10,10 0 0 0 -6.21094,-1.650387 10,10 0 0 0 -6.35742,2.904297 10,10 0 0 0 10e-6,14.14258 10,10 0 0 0 14.14257,0 10,10 0 0 0 1.27148,-12.58594 l 6.17969,-6.179688 1.17383,4.382818 3.86329,-1.03516 -1.17383,-4.38086 4.38086,1.173831 1.03515,-3.865237 -4.38086,-1.173832 3.20703,-3.207027 -2.82812,-2.828123 -3.20703,3.207027 z M 24.67258,32.91531 a 6,6 0 0 1 4.66993,1.74219 6,6 0 0 1 0,8.48437 6,6 0 0 1 -8.48633,0 6,6 0 0 1 0,-8.48437 6,6 0 0 1 3.8164,-1.74219 z"
     style="fill:#ffffff" />
</svg>
