<?xml version="1.0" encoding="UTF-8" standalone="no"?>
<svg
   width="64"
   height="64"
   fill="none"
   viewBox="0 0 64 64"
   version="1.1"
   xmlns="http://www.w3.org/2000/svg"
   xmlns:svg="http://www.w3.org/2000/svg">
  <defs
     id="defs3">
    <linearGradient
       id="a"
       x1="0.85000098"
       x2="62.619999"
       y1="62.720001"
       y2="1.8099999"
       gradientUnits="userSpaceOnUse">
      <stop
         stop-color="#FF9419"
         id="stop1"
         offset="0"
         style="stop-color:#f5a9b8;stop-opacity:1;" />
      <stop
         stop-color="#FF9419"
         id="stop4"
         offset="0.29834676"
         style="stop-color:#f5a9b8;stop-opacity:1;" />
      <stop
         offset="0.43000001"
         stop-color="#FF021D"
         id="stop2"
         style="stop-color:#d2d2d2;stop-opacity:1;" />
      <stop
         offset="0.73720789"
         stop-color="#FF021D"
         id="stop5"
         style="stop-color:#5bcefa;stop-opacity:1;" />
      <stop
         offset="1"
         stop-color="#E600FF"
         id="stop3"
         style="stop-color:#5bcefa;stop-opacity:1;" />
    </linearGradient>
  </defs>
  <path
     d="M 64,40 V 0 H 24 L 0,24 v 40 h 40 z"
     id="path5-5-5"
     style="fill:url(#a)" />
  <path
     fill="#000000"
     d="M 48,16 H 8 v 40 h 40 z"
     id="path5" />
  <path
     id="path8"
     d="m 36.51829,19.0989 -3.86523,1.035162 1.17382,4.380854 -4.38085,-1.173824 -1.03516,3.863277 4.38281,1.173829 -6.19727,6.197266 a 10,10 0 0 0 -6.21094,-1.650391 10,10 0 0 0 -6.35742,2.904295 10,10 0 0 0 10e-6,14.142583 10,10 0 0 0 14.14257,-2e-6 10,10 0 0 0 1.27148,-12.58594 l 6.17969,-6.179687 1.17383,4.382814 3.86329,-1.035155 -1.17383,-4.380861 4.38086,1.173831 1.03515,-3.865237 -4.38086,-1.173832 3.20703,-3.207027 -2.82812,-2.828123 -3.20703,3.207027 z M 20.67258,36.915308 a 6,6 0 0 1 4.66993,1.74219 6,6 0 0 1 0,8.484376 6,6 0 0 1 -8.48633,0 6,6 0 0 1 0,-8.484376 6,6 0 0 1 3.8164,-1.74219 z"
     style="fill:#ffffff" />
</svg>
