<?xml version="1.0" encoding="UTF-8" standalone="no"?>
<svg
   width="187"
   height="64"
   fill="none"
   viewBox="0 0 187 64"
   version="1.1"
   xmlns="http://www.w3.org/2000/svg"
   xmlns:svg="http://www.w3.org/2000/svg">
  <defs
     id="defs3">
    <linearGradient
       id="a"
       x1="0.85000098"
       x2="62.619999"
       y1="62.720001"
       y2="1.8099999"
       gradientUnits="userSpaceOnUse">
      <stop
         stop-color="#FF9419"
         id="stop1"
         offset="0"
         style="stop-color:#f5a9b8;stop-opacity:1;" />
      <stop
         stop-color="#FF9419"
         id="stop4"
         offset="0.29834676"
         style="stop-color:#f5a9b8;stop-opacity:1;" />
      <stop
         offset="0.43000001"
         stop-color="#FF021D"
         id="stop2"
         style="stop-color:#d2d2d2;stop-opacity:1;" />
      <stop
         offset="0.73720789"
         stop-color="#FF021D"
         id="stop5"
         style="stop-color:#5bcefa;stop-opacity:1;" />
      <stop
         offset="1"
         stop-color="#E600FF"
         id="stop3"
         style="stop-color:#5bcefa;stop-opacity:1;" />
    </linearGradient>
  </defs>
  <g
     id="g104">
    <path
       d="M 64,40 V 0 H 24 L 0,24 v 40 h 40 z"
       id="path5-5-5"
       style="fill:url(#a)" />
    <path
       fill="#000000"
       d="M 48,16 H 8 v 40 h 40 z"
       id="path5" />
    <path
       id="path8"
       d="m 36.51829,19.0989 -3.86523,1.035162 1.17382,4.380854 -4.38085,-1.173824 -1.03516,3.863277 4.38281,1.173829 -6.19727,6.197266 a 10,10 0 0 0 -6.21094,-1.650391 10,10 0 0 0 -6.35742,2.904295 10,10 0 0 0 10e-6,14.142583 10,10 0 0 0 14.14257,-2e-6 10,10 0 0 0 1.27148,-12.58594 l 6.17969,-6.179687 1.17383,4.382814 3.86329,-1.035155 -1.17383,-4.380861 4.38086,1.173831 1.03515,-3.865237 -4.38086,-1.173832 3.20703,-3.207027 -2.82812,-2.828123 -3.20703,3.207027 z M 20.67258,36.915308 a 6,6 0 0 1 4.66993,1.74219 6,6 0 0 1 0,8.484376 6,6 0 0 1 -8.48633,0 6,6 0 0 1 0,-8.484376 6,6 0 0 1 3.8164,-1.74219 z"
       style="fill:#ffffff" />
  </g>
  <g
     id="g103"
     style="fill: currentColor;">
    <path
       id="path97"
       style="font-size:24px;line-height:0.8;font-family:Montserrat;-inkscape-font-specification:'Montserrat, @wght=700';font-variation-settings:'wght' 700;fill:#000000"
       d="m 88.615234,16.287109 v 16.800782 h 3.886718 v -4.679688 h 3.384766 c 0.062,0 0.118396,-0.007 0.179688,-0.0078 l 3.228515,4.6875 h 4.199219 l -3.75391,-5.386719 c 0.0113,-0.0049 0.02386,-0.0087 0.03516,-0.01367 1.088,-0.48 1.92753,-1.168453 2.51953,-2.064453 0.592,-0.912 0.88867,-1.990281 0.88867,-3.238281 0,-1.264 -0.29667,-2.353625 -0.88867,-3.265625 -0.592,-0.912 -1.43153,-1.607891 -2.51953,-2.087891 -1.088001,-0.496 -2.384672,-0.744141 -3.888672,-0.744141 z m 3.886718,3.167969 h 3.167969 c 1.2,0 2.097453,0.257531 2.689453,0.769531 0.592,0.512 0.886719,1.232157 0.886719,2.160157 0,0.912 -0.294719,1.632156 -0.886719,2.160156 -0.592,0.512 -1.489453,0.767578 -2.689453,0.767578 h -3.167969 z" />
    <path
       id="path96"
       style="font-size:24px;line-height:0.8;font-family:Montserrat;-inkscape-font-specification:'Montserrat, @wght=700';font-variation-settings:'wght' 700;fill:#000000"
       d="m 114.0664,16 c -1.312,0 -2.52843,0.216438 -3.64843,0.648438 -1.12,0.431999 -2.09574,1.040218 -2.92774,1.824218 -0.832,0.784 -1.47936,1.703766 -1.94336,2.759766 -0.448,1.056 -0.67187,2.207078 -0.67187,3.455078 0,1.248 0.22387,2.401031 0.67187,3.457031 0.464,1.056 1.10394,1.975766 1.91992,2.759766 0.832,0.784 1.80774,1.392219 2.92774,1.824219 1.136,0.432 2.36731,0.648437 3.69531,0.648437 1.312,0 2.521,-0.216437 3.625,-0.648437 1.12,-0.432 2.0883,-1.032782 2.9043,-1.800782 0.832,-0.784 1.47936,-1.703765 1.94336,-2.759765 0.464,-1.072 0.69531,-2.232469 0.69531,-3.480469 0,-1.264 -0.23131,-2.415078 -0.69531,-3.455078 -0.464,-1.056 -1.11136,-1.975766 -1.94336,-2.759766 -0.816,-0.784 -1.7843,-1.39222 -2.9043,-1.824218 C 116.61084,16.216436 115.3944,16 114.0664,16 Z m 0,3.3125 c 0.752,0 1.4479,0.126812 2.08789,0.382812 0.64001,0.256002 1.19226,0.625469 1.65626,1.105469 0.48,0.48 0.84751,1.047125 1.10351,1.703125 0.272,0.656 0.4082,1.383594 0.4082,2.183594 0,0.8 -0.1362,1.527594 -0.4082,2.183594 -0.256,0.656 -0.62351,1.225078 -1.10351,1.705078 -0.48001,0.48 -1.03969,0.847514 -1.67969,1.103516 -0.624,0.256 -1.31246,0.384765 -2.06446,0.384765 -0.752,0 -1.44789,-0.128765 -2.08789,-0.384765 -0.64,-0.256002 -1.19968,-0.623516 -1.67968,-1.103516 -0.464,-0.48 -0.83152,-1.049078 -1.10352,-1.705078 -0.256,-0.672 -0.38478,-1.399594 -0.38476,-2.183594 0,-0.8 0.12876,-1.527594 0.38476,-2.183594 0.272,-0.656 0.64695,-1.223125 1.12695,-1.703125 0.48,-0.48 1.03225,-0.849468 1.65625,-1.105469 0.64,-0.256 1.33589,-0.382812 2.08789,-0.382812 z" />
    <path
       style="font-size:24px;line-height:0.8;font-family:Montserrat;-inkscape-font-specification:'Montserrat, @wght=700';font-variation-settings:'wght' 700;fill:#000000"
       d="m 171.37109,16.287109 v 3.167969 h 5.375 v 13.632813 h 3.88868 V 19.455078 h 5.37695 v -3.167969 z"
       id="path95" />
    <path
       style="font-size:24px;line-height:0.8;font-family:Montserrat;-inkscape-font-specification:'Montserrat, @wght=700';font-variation-settings:'wght' 700;fill:#000000"
       d="m 139.73438,16.287109 v 16.800782 h 13.00781 V 29.96875 h -9.14453 v -3.888672 h 7.80078 v -3.023437 h -7.80078 v -3.648438 h 8.83203 v -3.121094 z"
       id="path94" />
    <path
       style="font-size:24px;line-height:0.8;font-family:Montserrat;-inkscape-font-specification:'Montserrat, @wght=700';font-variation-settings:'wght' 700;fill:#000000"
       d="m 126.39062,16.287109 v 3.121094 h 5.9043 v 7.992188 c 0,1.856 -0.79295,2.783203 -2.37695,2.783203 -0.592,0 -1.14425,-0.151078 -1.65625,-0.455078 -0.512,-0.32 -0.99889,-0.784579 -1.46289,-1.392578 l -2.16016,2.591796 c 0.608,0.784 1.38413,1.392219 2.32812,1.824219 0.96001,0.416 2.00658,0.625 3.14258,0.625 1.984,0 3.48967,-0.513109 4.51368,-1.537109 1.024,-1.024 1.53515,-2.57625 1.53515,-4.65625 V 16.287109 Z"
       id="path93" />
    <path
       id="path91"
       style="font-size:24px;line-height:0.8;font-family:Montserrat;-inkscape-font-specification:'Montserrat, @wght=700';font-variation-settings:'wght' 700;fill:#000000"
       d="m 71.886719,16.287109 v 16.800782 h 3.888672 v -4.632813 h 3.382812 c 1.504,0 2.800672,-0.23875 3.888672,-0.71875 1.088,-0.496 1.927531,-1.201281 2.519531,-2.113281 0.592,-0.912 0.888672,-1.990281 0.888672,-3.238281 0,-1.264 -0.296672,-2.353625 -0.888672,-3.265625 -0.592,-0.912 -1.431531,-1.607891 -2.519531,-2.087891 -1.088,-0.496 -2.384672,-0.744141 -3.888672,-0.744141 z m 3.888672,3.167969 h 3.167968 c 1.2,0 2.0955,0.257531 2.6875,0.769531 0.592,0.512 0.886719,1.232157 0.886719,2.160157 0,0.912 -0.294719,1.622765 -0.886719,2.134765 -0.592,0.512 -1.4875,0.767578 -2.6875,0.767578 h -3.167968 z" />
    <path
       style="font-size:24px;line-height:0.8;font-family:Montserrat;-inkscape-font-specification:'Montserrat, @wght=700';font-variation-settings:'wght' 700;fill:#000000"
       d="m 162.76013,16 c -1.312,0 -2.51903,0.216438 -3.62304,0.648438 -1.104,0.415999 -2.0723,1.014828 -2.9043,1.798828 -0.816,0.784 -1.45592,1.703765 -1.91992,2.759765 -0.448,1.056 -0.67187,2.216469 -0.67187,3.480469 0,1.264 0.22388,2.424469 0.67187,3.480469 0.464,1.056 1.10392,1.975765 1.91992,2.759765 0.816,0.784 1.77491,1.392219 2.87891,1.824219 1.12,0.416 2.329,0.625 3.625,0.625 1.472,0 2.79098,-0.257531 3.95898,-0.769531 1.184,-0.512 2.17656,-1.254469 2.97656,-2.230469 l -2.49609,-2.304687 c -0.576,0.672 -1.21592,1.175718 -1.91992,1.511718 -0.704,0.32 -1.47269,0.480469 -2.30469,0.480469 -0.784,0 -1.50416,-0.128765 -2.16016,-0.384765 -0.656,-0.256 -1.22312,-0.623516 -1.70312,-1.103516 -0.48,-0.48 -0.85691,-1.049078 -1.12891,-1.705078 -0.256,-0.656 -0.38281,-1.383594 -0.38281,-2.183594 0,-0.8 0.12681,-1.527594 0.38281,-2.183594 0.272,-0.656 0.64891,-1.223125 1.12891,-1.703125 0.48,-0.48 1.04712,-0.849468 1.70312,-1.105469 0.656,-0.256 1.37616,-0.382812 2.16016,-0.382812 0.832,0 1.60069,0.167906 2.30469,0.503906 0.704,0.32 1.34392,0.806891 1.91992,1.462891 l 2.49609,-2.302735 c -0.8,-0.975999 -1.79256,-1.712984 -2.97656,-2.208984 C 165.52768,16.255578 164.21613,16 162.76013,16 Z"
       id="path89" />
    <path
       id="path103"
       style="font-size:24px;line-height:0.8;font-family:Montserrat;-inkscape-font-specification:'Montserrat, @wght=700';font-variation-settings:'wght' 700;fill:#000000"
       d="m 112.13477,38.912109 -7.48828,16.800782 h 3.98437 l 1.49805,-3.601563 h 7.78515 l 1.49219,3.601563 h 4.08008 l -7.51172,-16.800782 z m 1.89453,3.820313 2.66211,6.427734 h -5.33594 z" />
    <path
       id="path102"
       style="font-size:24px;line-height:0.8;font-family:Montserrat;-inkscape-font-specification:'Montserrat, @wght=700';font-variation-settings:'wght' 700;fill:#000000"
       d="m 88.615234,38.912109 v 16.800782 h 3.886719 V 51.03125 h 3.384766 c 0.06144,0 0.116992,-0.007 0.177734,-0.0078 l 3.230469,4.689453 h 4.199218 l -3.753906,-5.386719 c 0.0113,-0.0049 0.0239,-0.0087 0.03516,-0.01367 1.087996,-0.48 1.927526,-1.168453 2.519526,-2.064453 0.592,-0.912 0.88672,-1.992235 0.88672,-3.240235 0,-1.263998 -0.29472,-2.351671 -0.88672,-3.263671 -0.592,-0.912 -1.43153,-1.607891 -2.519526,-2.087891 -1.088,-0.496 -2.384672,-0.744141 -3.888672,-0.744141 z m 3.886719,3.167969 h 3.167969 c 1.2,0 2.097453,0.255578 2.689453,0.767578 0.592,0.512 0.886719,1.232157 0.886719,2.160156 0,0.912001 -0.294719,1.632157 -0.886719,2.160157 -0.592,0.512 -1.489453,0.767578 -2.689453,0.767578 h -3.167969 z" />
    <path
       style="font-size:24px;line-height:0.8;font-family:Montserrat;-inkscape-font-specification:'Montserrat, @wght=700';font-variation-settings:'wght' 700;fill:#000000"
       d="m 124.63867,38.912109 v 16.800782 h 3.83985 V 45.515625 l 8.37695,10.197266 h 3.19141 V 38.912109 h -3.83985 v 10.19336 l -8.35156,-10.19336 z"
       id="path101" />
    <path
       style="font-size:24px;line-height:0.8;font-family:Montserrat;-inkscape-font-specification:'Montserrat, @wght=700';font-variation-settings:'wght' 700;fill:#000000"
       d="m 71.886719,38.912109 v 3.167969 h 5.375 v 13.632813 h 3.888672 V 42.080078 h 5.376953 v -3.167969 z"
       id="path98" />
    <path
       style="font-size:24px;line-height:0.8;font-family:Montserrat;-inkscape-font-specification:'Montserrat, @wght=700';font-variation-settings:'wght' 700;fill:#000000"
       d="m 150.12695,38.623047 c -1.584,0 -2.90493,0.240703 -3.96093,0.720703 -1.04,0.464 -1.82357,1.096484 -2.35157,1.896484 -0.512,0.784 -0.76758,1.655235 -0.76757,2.615235 -10e-6,0.896 0.17534,1.632984 0.52734,2.208984 0.368,0.576 0.84001,1.038625 1.41601,1.390625 0.576,0.352 1.20849,0.641236 1.89649,0.865234 0.704,0.224 1.39989,0.416172 2.08789,0.576172 0.704,0.144 1.34392,0.304469 1.91992,0.480469 0.576,0.16 1.04058,0.374484 1.39258,0.646485 0.352,0.256 0.52734,0.60864 0.52734,1.05664 0,0.352 -0.11193,0.663547 -0.33593,0.935547 -0.224,0.272 -0.57665,0.488438 -1.05664,0.648437 -0.46401,0.144 -1.07966,0.216797 -1.84766,0.216797 -1.008,0 -2.008,-0.160468 -3,-0.480468 -0.976,-0.336 -1.82297,-0.759485 -2.54297,-1.271485 l -1.32031,2.927735 c 0.752,0.576 1.74456,1.048015 2.97656,1.416015 1.232,0.352 2.51928,0.527344 3.86328,0.527344 1.6,0 2.91899,-0.240703 3.95899,-0.720703 1.056,-0.48 1.84895,-1.110531 2.37695,-1.894531 0.528,-0.784 0.79101,-1.647797 0.79101,-2.591797 0,-0.88 -0.18278,-1.609547 -0.55078,-2.185547 -0.352,-0.576 -0.81658,-1.038625 -1.39257,-1.390625 -0.576,-0.352 -1.21593,-0.631844 -1.91993,-0.839844 -0.688,-0.208 -1.38389,-0.392734 -2.08789,-0.552734 -0.688,-0.16 -1.32048,-0.320469 -1.89648,-0.480469 -0.576,-0.16 -1.03863,-0.367047 -1.39063,-0.623047 -0.352,-0.272 -0.52929,-0.62464 -0.52929,-1.056641 0,-0.368 0.1045,-0.688937 0.3125,-0.960937 0.208,-0.288 0.55125,-0.519311 1.03125,-0.695313 0.48,-0.175999 1.09761,-0.263671 1.84961,-0.263671 0.752,0 1.51873,0.111937 2.30273,0.335937 0.784,0.208 1.56756,0.536375 2.35156,0.984375 l 1.20117,-2.953125 c -0.784,-0.496 -1.68889,-0.863515 -2.71289,-1.103516 -1.024,-0.255999 -2.06314,-0.384765 -3.11914,-0.384765 z"
       id="text74" />
  </g>
</svg>
