<?xml version="1.0" encoding="UTF-8" standalone="no"?>
<svg
   width="415"
   height="64"
   viewBox="0 0 415 64"
   version="1.1"
   xmlns="http://www.w3.org/2000/svg"
   xmlns:svg="http://www.w3.org/2000/svg">
  <defs
     id="defs3">
    <linearGradient
       id="a"
       x1="0.85000098"
       x2="62.619999"
       y1="62.720001"
       y2="1.8099999"
       gradientUnits="userSpaceOnUse">
      <stop
         stop-color="#FF9419"
         id="stop1"
         offset="0"
         style="stop-color:#f5a9b8;stop-opacity:1;" />
      <stop
         stop-color="#FF9419"
         id="stop4"
         offset="0.29834676"
         style="stop-color:#f5a9b8;stop-opacity:1;" />
      <stop
         offset="0.43000001"
         stop-color="#FF021D"
         id="stop2"
         style="stop-color:#d2d2d2;stop-opacity:1;" />
      <stop
         offset="0.73720789"
         stop-color="#FF021D"
         id="stop5"
         style="stop-color:#5bcefa;stop-opacity:1;" />
      <stop
         offset="1"
         stop-color="#E600FF"
         id="stop3"
         style="stop-color:#5bcefa;stop-opacity:1;" />
    </linearGradient>
  </defs>
  <path
     d="M 64,40 V 0 H 24 L 0,24 v 40 h 40 z"
     id="path5-5-5"
     style="fill:url(#a)" />
  <path
     fill="#000000"
     d="M 48,16 H 8 v 40 h 40 z"
     id="path5" />
  <path
     id="path8"
     d="m 36.51829,19.0989 -3.86523,1.035162 1.17382,4.380854 -4.38085,-1.173824 -1.03516,3.863277 4.38281,1.173829 -6.19727,6.197266 a 10,10 0 0 0 -6.21094,-1.650391 10,10 0 0 0 -6.35742,2.904295 10,10 0 0 0 10e-6,14.142583 10,10 0 0 0 14.14257,-2e-6 10,10 0 0 0 1.27148,-12.58594 l 6.17969,-6.179687 1.17383,4.382814 3.86329,-1.035155 -1.17383,-4.380861 4.38086,1.173831 1.03515,-3.865237 -4.38086,-1.173832 3.20703,-3.207027 -2.82812,-2.828123 -3.20703,3.207027 z M 20.67258,36.915308 a 6,6 0 0 1 4.66993,1.74219 6,6 0 0 1 0,8.484376 6,6 0 0 1 -8.48633,0 6,6 0 0 1 0,-8.484376 6,6 0 0 1 3.8164,-1.74219 z"
     style="fill:#ffffff" />
  <path
     style="fill: currentColor;">
     d="M 72,50 V 22 h 12.12 c 2.506667,0 4.666667,0.413333 6.48,1.24 1.813333,0.8 3.213333,1.96 4.2,3.48 0.986667,1.52 1.48,3.333333 1.48,5.44 0,2.08 -0.493333,3.88 -1.48,5.4 -0.986667,1.52 -2.386667,2.693333 -4.2,3.52 -1.813333,0.8 -3.973333,1.2 -6.48,1.2 H 75.6 l 2.88,-2.92 V 50 Z M 78.48,40.08 75.6,37 h 8.16 c 2,0 3.493333,-0.426667 4.48,-1.28 0.986667,-0.853333 1.48,-2.04 1.48,-3.56 0,-1.546667 -0.493333,-2.746667 -1.48,-3.6 -0.986667,-0.853333 -2.48,-1.28 -4.48,-1.28 H 75.6 L 78.48,24.2 Z M 100.88001,50 V 22 h 12.12 c 2.50667,0 4.66667,0.413333 6.48,1.24 1.81333,0.8 3.21333,1.96 4.2,3.48 0.98667,1.52 1.48,3.333333 1.48,5.44 0,2.08 -0.49333,3.88 -1.48,5.4 -0.98667,1.493333 -2.38667,2.64 -4.2,3.44 -1.81333,0.8 -3.97333,1.2 -6.48,1.2 h -8.52 l 2.88,-2.84 V 50 Z m 17.8,0 -7,-10.16 h 6.92 l 7.08,10.16 z m -11.32,-9.92 -2.88,-3.04 h 8.16 c 2,0 3.49333,-0.426667 4.48,-1.28 0.98667,-0.88 1.48,-2.08 1.48,-3.6 0,-1.546667 -0.49333,-2.746667 -1.48,-3.6 -0.98667,-0.853333 -2.48,-1.28 -4.48,-1.28 h -8.16 l 2.88,-3.08 z m 36.52002,10.4 c -2.21333,0 -4.26667,-0.36 -6.16,-1.08 -1.86667,-0.72 -3.49333,-1.733333 -4.88,-3.04 -1.36,-1.306667 -2.42667,-2.84 -3.2,-4.6 -0.74667,-1.76 -1.12,-3.68 -1.12,-5.76 0,-2.08 0.37333,-4 1.12,-5.76 0.77333,-1.76 1.85333,-3.293333 3.24,-4.6 1.38667,-1.306667 3.01333,-2.32 4.88,-3.04 1.86667,-0.72 3.89333,-1.08 6.08,-1.08 2.21333,0 4.24,0.36 6.08,1.08 1.86667,0.72 3.48,1.733333 4.84,3.04 1.38667,1.306667 2.46667,2.84 3.24,4.6 0.77333,1.733333 1.16,3.653333 1.16,5.76 0,2.08 -0.38667,4.013333 -1.16,5.8 -0.77333,1.76 -1.85333,3.293333 -3.24,4.6 -1.36,1.28 -2.97333,2.28 -4.84,3 -1.84,0.72 -3.85333,1.08 -6.04,1.08 z m -0.04,-5.52 c 1.25333,0 2.4,-0.213333 3.44,-0.64 1.06667,-0.426667 2,-1.04 2.8,-1.84 0.8,-0.8 1.41333,-1.746667 1.84,-2.84 0.45333,-1.093333 0.68,-2.306667 0.68,-3.64 0,-1.333333 -0.22667,-2.546667 -0.68,-3.64 -0.42667,-1.093333 -1.04,-2.04 -1.84,-2.84 -0.77333,-0.8 -1.69333,-1.413333 -2.76,-1.84 -1.06667,-0.426667 -2.22667,-0.64 -3.48,-0.64 -1.25333,0 -2.41333,0.213333 -3.48,0.64 -1.04,0.426667 -1.96,1.04 -2.76,1.84 -0.8,0.8 -1.42667,1.746667 -1.88,2.84 -0.42667,1.093333 -0.64,2.306667 -0.64,3.64 0,1.306667 0.21333,2.52 0.64,3.64 0.45333,1.093333 1.06667,2.04 1.84,2.84 0.8,0.8 1.73333,1.413333 2.8,1.84 1.06667,0.426667 2.22667,0.64 3.48,0.64 z m 24.76002,5.52 c -1.89333,0 -3.64,-0.346667 -5.24,-1.04 -1.57333,-0.72 -2.86667,-1.733333 -3.88,-3.04 l 3.6,-4.32 c 0.77333,1.013333 1.58667,1.786667 2.44,2.32 0.85333,0.506667 1.77333,0.76 2.76,0.76 2.64,0 3.96,-1.546667 3.96,-4.64 V 27.2 h -9.84 V 22 h 16.28 v 18.16 c 0,3.466667 -0.85333,6.053333 -2.56,7.76 -1.70667,1.706667 -4.21333,2.56 -7.52,2.56 z m 22.44001,-17.2 h 13.48 v 5.04 h -13.48 z m 0.48,11.52 h 15.24 V 50 h -21.68 V 22 h 21.16 v 5.2 h -14.72 z m 33.79998,5.68 c -2.16,0 -4.17333,-0.346667 -6.04,-1.04 -1.84,-0.72 -3.44,-1.733333 -4.8,-3.04 -1.36,-1.306667 -2.42667,-2.84 -3.2,-4.6 -0.74667,-1.76 -1.12,-3.693333 -1.12,-5.8 0,-2.106667 0.37333,-4.04 1.12,-5.8 0.77333,-1.76 1.84,-3.293333 3.2,-4.6 1.38667,-1.306667 3,-2.306667 4.84,-3 1.84,-0.72 3.85333,-1.08 6.04,-1.08 2.42667,0 4.61333,0.426667 6.56,1.28 1.97333,0.826667 3.62667,2.053333 4.96,3.68 l -4.16,3.84 c -0.96,-1.093333 -2.02667,-1.906667 -3.2,-2.44 -1.17333,-0.56 -2.45333,-0.84 -3.84,-0.84 -1.30667,0 -2.50667,0.213333 -3.6,0.64 -1.09333,0.426667 -2.04,1.04 -2.84,1.84 -0.8,0.8 -1.42667,1.746667 -1.88,2.84 -0.42667,1.093333 -0.64,2.306667 -0.64,3.64 0,1.333333 0.21333,2.546667 0.64,3.64 0.45333,1.093333 1.08,2.04 1.88,2.84 0.8,0.8 1.74667,1.413333 2.84,1.84 1.09333,0.426667 2.29333,0.64 3.6,0.64 1.38667,0 2.66667,-0.266667 3.84,-0.8 1.17333,-0.56 2.24,-1.4 3.2,-2.52 l 4.16,3.84 c -1.33333,1.626667 -2.98667,2.866667 -4.96,3.72 -1.94667,0.853333 -4.14667,1.28 -6.6,1.28 z M 246.76759,50 V 27.28 h -8.96 V 22 h 24.4 v 5.28 h -8.96 V 50 Z m 35.84037,0 V 27.28 h -8.96 V 22 h 24.4 v 5.28 h -8.96 V 50 Z m 18.92,0 V 22 h 12.12 c 2.50667,0 4.66667,0.413333 6.48,1.24 1.81333,0.8 3.21333,1.96 4.2,3.48 0.98667,1.52 1.48,3.333333 1.48,5.44 0,2.08 -0.49333,3.88 -1.48,5.4 -0.98667,1.493333 -2.38667,2.64 -4.2,3.44 -1.81333,0.8 -3.97333,1.2 -6.48,1.2 h -8.52 l 2.88,-2.84 V 50 Z m 17.8,0 -7,-10.16 h 6.92 l 7.08,10.16 z m -11.32,-9.92 -2.88,-3.04 h 8.16 c 2,0 3.49333,-0.426667 4.48,-1.28 0.98667,-0.88 1.48,-2.08 1.48,-3.6 0,-1.546667 -0.49333,-2.746667 -1.48,-3.6 -0.98667,-0.853333 -2.48,-1.28 -4.48,-1.28 h -8.16 l 2.88,-3.08 z m 19.24003,9.92 12.48,-28 h 6.4 l 12.52,28 h -6.8 l -10.24,-24.72 h 2.56 l -10.28,24.72 z m 6.24,-6 1.72,-4.92 h 14.4 l 1.76,4.92 z m 28.08004,6 V 22 h 5.36 l 16.52,20.16 h -2.6 V 22 h 6.4 v 28 h -5.32 l -16.56,-20.16 h 2.6 V 50 Z m 41.52001,0.48 c -2.24,0 -4.38667,-0.293333 -6.44,-0.88 -2.05333,-0.613333 -3.70667,-1.4 -4.96,-2.36 l 2.2,-4.88 c 1.2,0.853333 2.61333,1.56 4.24,2.12 1.65333,0.533333 3.32,0.8 5,0.8 1.28,0 2.30667,-0.12 3.08,-0.36 0.8,-0.266667 1.38667,-0.626667 1.76,-1.08 0.37333,-0.453333 0.56,-0.973333 0.56,-1.56 0,-0.746667 -0.29333,-1.333333 -0.88,-1.76 -0.58667,-0.453333 -1.36,-0.813333 -2.32,-1.08 -0.96,-0.293333 -2.02667,-0.56 -3.2,-0.8 -1.14667,-0.266667 -2.30667,-0.586667 -3.48,-0.96 -1.14667,-0.373333 -2.2,-0.853333 -3.16,-1.44 -0.96,-0.586667 -1.74667,-1.36 -2.36,-2.32 -0.58667,-0.96 -0.88,-2.186667 -0.88,-3.68 0,-1.6 0.42667,-3.053333 1.28,-4.36 0.88,-1.333333 2.18667,-2.386667 3.92,-3.16 1.76,-0.8 3.96,-1.2 6.6,-1.2 1.76,0 3.49333,0.213333 5.2,0.64 1.70667,0.4 3.21333,1.013333 4.52,1.84 l -2,4.92 c -1.30667,-0.746667 -2.61333,-1.293333 -3.92,-1.64 -1.30667,-0.373333 -2.58667,-0.56 -3.84,-0.56 -1.25333,0 -2.28,0.146667 -3.08,0.44 -0.8,0.293333 -1.37333,0.68 -1.72,1.16 -0.34667,0.453333 -0.52,0.986667 -0.52,1.6 0,0.72 0.29333,1.306667 0.88,1.76 0.58667,0.426667 1.36,0.773333 2.32,1.04 0.96,0.266667 2.01333,0.533333 3.16,0.8 1.17333,0.266667 2.33333,0.573333 3.48,0.92 1.17333,0.346667 2.24,0.813333 3.2,1.4 0.96,0.586667 1.73333,1.36 2.32,2.32 0.61333,0.96 0.92,2.173333 0.92,3.64 0,1.573333 -0.44,3.013333 -1.32,4.32 -0.88,1.306667 -2.2,2.36 -3.96,3.16 -1.73333,0.8 -3.93333,1.2 -6.6,1.2 z"
     id="text1"
     aria-label="PROJECT TRANS" />
</svg>
