<?xml version="1.0" encoding="UTF-8" standalone="no"?>
<svg
   width="512"
   height="512"
   viewBox="0 0 512 512"
   version="1.1"
   id="svg5"
   xmlns="http://www.w3.org/2000/svg"
   xmlns:svg="http://www.w3.org/2000/svg">
  <defs
     id="defs7">
    <linearGradient
       id="grad2"
       x1="0%"
       y1="0%"
       x2="100%"
       y2="100%">
      <stop
         offset="0%"
         style="stop-color:#5BCEFA;stop-opacity:1"
         id="stop2" />
      <stop
         offset="60%"
         style="stop-color:#F5A9B8;stop-opacity:1"
         id="stop4" />
    </linearGradient>
  </defs>
  <g
     id="g15">
    <g
       aria-label="Project Trans"
       id="text13">
      <path
         d="m 41.48,235 q -0.72,0 -0.72,-0.72 l 0.288,-98.928 q 0,-0.576 0.576,-0.576 h 27.648 q 13.248,0 20.88,8.064 7.776,8.064 7.776,21.888 0,10.224 -4.032,17.712 -4.032,7.488 -10.512,11.52 -6.48,4.032 -14.112,4.032 H 58.328 v 36.288 q 0,0.72 -0.72,0.72 z m 16.848,-54.432 h 10.944 q 4.608,0 7.92,-4.32 3.456,-4.464 3.456,-11.52 0,-5.616 -3.024,-9.216 -3.024,-3.6 -8.352,-3.6 l -10.944,0.144 z"
         style="font-size:144px;font-family:Staatliches;fill:url(#grad2)"
         id="path351" />
      <path
         d="m 107.14411,235 q -0.576,0 -0.576,-0.72 l 0.288,-98.928 q 0,-0.576 0.576,-0.576 h 29.088 q 7.776,0 14.256,3.888 6.624,3.744 10.512,10.224 3.888,6.336 3.888,14.4 0,5.328 -1.584,9.648 -1.584,4.176 -3.744,7.2 -2.16,2.88 -3.888,4.32 7.776,8.64 7.776,20.304 l 0.144,29.52 q 0,0.72 -0.72,0.72 h -16.272 q -0.576,0 -0.576,-0.432 V 204.76 q 0,-5.184 -3.744,-8.928 -3.6,-3.888 -8.928,-3.888 h -9.504 l -0.144,42.336 q 0,0.72 -0.576,0.72 z m 16.992,-60.336 h 12.384 q 4.464,0 7.92,-3.312 3.456,-3.312 3.456,-8.064 0,-4.608 -3.456,-7.92 -3.312,-3.312 -7.92,-3.312 h -12.384 z"
         style="font-size:144px;font-family:Staatliches;fill:url(#grad2)"
         id="path353" />
      <path
         d="m 201.89628,236.44 q -7.776,0 -14.256,-3.888 -6.336,-4.032 -10.224,-10.512 -3.888,-6.624 -3.888,-14.544 l 0.144,-45.648 q 0,-7.92 3.744,-14.4 3.888,-6.48 10.368,-10.368 6.48,-3.888 14.112,-3.888 7.776,0 14.112,3.888 6.336,3.888 10.08,10.368 3.888,6.48 3.888,14.4 l 0.144,45.648 q 0,7.92 -3.888,14.544 -3.744,6.48 -10.224,10.512 -6.336,3.888 -14.112,3.888 z m 0,-17.424 q 4.32,0 7.488,-3.456 3.312,-3.6 3.312,-8.064 l -0.144,-45.648 q 0,-4.752 -3.024,-8.064 -3.024,-3.312 -7.632,-3.312 -4.464,0 -7.632,3.312 -3.168,3.168 -3.168,8.064 v 45.648 q 0,4.752 3.168,8.208 3.168,3.312 7.632,3.312 z"
         style="font-size:144px;font-family:Staatliches;fill:url(#grad2)"
         id="path355" />
      <path
         d="m 264.68038,236.44 q -8.064,0 -14.544,-3.744 -6.336,-3.888 -10.08,-10.512 -3.6,-6.768 -3.6,-15.12 v -6.624 q 0,-0.576 0.576,-0.576 h 16.272 q 0.576,0 0.576,0.72 v 6.48 q 0,5.328 3.024,8.64 3.024,3.312 7.776,3.312 4.32,0 7.488,-3.6 3.168,-3.6 3.168,-8.352 v -71.568 q 0,-0.576 0.576,-0.576 h 16.128 q 0.576,0 0.576,0.72 l 0.144,71.424 q 0,7.92 -3.888,14.688 -3.744,6.624 -10.08,10.656 -6.336,4.032 -14.112,4.032 z"
         style="font-size:144px;font-family:Staatliches;fill:url(#grad2)"
         id="path357" />
      <path
         d="m 304.28031,235 q -0.576,0 -0.576,-0.72 l 0.144,-98.928 q 0,-0.576 0.576,-0.576 h 46.224 q 0.576,0 0.576,0.72 v 16.128 q 0,0.576 -0.576,0.576 h -29.52 v 22.464 h 29.52 q 0.576,0 0.576,0.576 l 0.144,16.272 q 0,0.576 -0.576,0.576 h -29.664 v 25.2 h 29.664 q 0.576,0 0.576,0.72 v 16.416 q 0,0.576 -0.576,0.576 z"
         style="font-size:144px;font-family:Staatliches;fill:url(#grad2)"
         id="path359" />
      <path
         d="m 388.37621,236.44 q -7.92,0 -14.4,-3.888 -6.336,-4.032 -10.08,-10.656 -3.744,-6.624 -3.744,-14.832 l 0.144,-44.928 q 0,-7.92 3.6,-14.4 3.744,-6.624 10.08,-10.512 6.48,-4.032 14.4,-4.032 7.92,0 14.256,3.888 6.336,3.888 10.08,10.512 3.744,6.48 3.744,14.544 v 6.624 q 0,0.576 -0.576,0.576 h -16.128 q -0.576,0 -0.576,-0.576 v -6.624 q 0,-4.752 -3.168,-8.208 -3.024,-3.456 -7.632,-3.456 -5.184,0 -7.92,3.6 -2.736,3.456 -2.736,8.064 v 44.928 q 0,5.328 3.024,8.64 3.168,3.312 7.632,3.312 4.608,0 7.632,-3.6 3.168,-3.744 3.168,-8.352 v -6.624 q 0,-0.576 0.576,-0.576 h 16.272 q 0.576,0 0.576,0.576 v 6.624 q 0,8.208 -3.888,14.832 -3.744,6.624 -10.08,10.656 -6.336,3.888 -14.256,3.888 z"
         style="font-size:144px;font-family:Staatliches;fill:url(#grad2)"
         id="path361" />
      <path
         d="m 439.64001,235 q -0.576,0 -0.576,-0.72 V 152.2 h -18.72 q -0.72,0 -0.72,-0.72 l 0.144,-16.128 q 0,-0.576 0.576,-0.576 h 54.72 q 0.72,0 0.72,0.576 v 16.128 q 0,0.72 -0.576,0.72 h -18.864 l 0.144,82.08 q 0,0.72 -0.576,0.72 z"
         style="font-size:144px;font-family:Staatliches;fill:url(#grad2)"
         id="path363" />
      <path
         d="m 55.16,375 q -0.576,0 -0.576,-0.72 V 292.2 h -18.72 q -0.72,0 -0.72,-0.72 l 0.144,-16.128 q 0,-0.576 0.576,-0.576 h 54.72 q 0.72,0 0.72,0.576 v 16.128 q 0,0.72 -0.576,0.72 H 71.864 l 0.144,82.08 q 0,0.72 -0.576,0.72 z"
         style="font-size:144px;font-family:Staatliches;fill:url(#grad2)"
         id="path365" />
      <path
         d="m 98.935945,375 q -0.576,0 -0.576,-0.72 l 0.288,-98.928 q 0,-0.576 0.576,-0.576 h 29.088005 q 7.776,0 14.256,3.888 6.624,3.744 10.512,10.224 3.888,6.336 3.888,14.4 0,5.328 -1.584,9.648 -1.584,4.176 -3.744,7.2 -2.16,2.88 -3.888,4.32 7.776,8.64 7.776,20.304 l 0.144,29.52 q 0,0.72 -0.72,0.72 h -16.272 q -0.576,0 -0.576,-0.432 V 344.76 q 0,-5.184 -3.744,-8.928 -3.6,-3.888 -8.928,-3.888 h -9.504 l -0.144,42.336 q 0,0.72 -0.576,0.72 z m 16.992005,-60.336 h 12.384 q 4.464,0 7.92,-3.312 3.456,-3.312 3.456,-8.064 0,-4.608 -3.456,-7.92 -3.312,-3.312 -7.92,-3.312 h -12.384 z"
         style="font-size:144px;font-family:Staatliches;fill:url(#grad2)"
         id="path367" />
      <path
         d="m 162.872,374.28 17.856,-98.928 q 0.144,-0.576 0.72,-0.576 h 20.88 q 0.576,0 0.72,0.576 l 17.136,98.928 q 0.144,0.72 -0.576,0.72 h -15.984 q -0.576,0 -0.72,-0.72 l -1.584,-10.512 h -19.584 l -1.584,10.512 q -0.144,0.72 -0.72,0.72 h -15.984 q -0.576,0 -0.576,-0.72 z m 21.744,-25.92 h 13.824 l -5.904,-40.464 -0.864,-5.328 -0.576,5.328 z"
         style="font-size:144px;font-family:Staatliches;fill:url(#grad2)"
         id="path369" />
      <path
         d="m 230.552,375 q -1.152,0 -1.152,-1.008 l -0.144,-98.064 q 0,-1.152 1.152,-1.152 h 12.96 l 24.336,56.736 -0.72,-55.584 q 0,-1.152 1.296,-1.152 h 14.256 q 0.864,0 0.864,1.152 l 0.144,98.208 q 0,0.864 -0.72,0.864 h -12.672 l -24.912,-52.992 1.008,51.84 q 0,1.152 -1.296,1.152 z"
         style="font-size:144px;font-family:Staatliches;fill:url(#grad2)"
         id="path371" />
      <path
         d="m 320.5521,376.44 q -7.776,0 -14.256,-3.888 -6.336,-4.032 -10.224,-10.512 -3.744,-6.624 -3.744,-14.544 v -6.624 q 0,-0.72 0.72,-0.72 h 16.128 q 0.576,0 0.576,0.72 v 6.624 q 0,4.752 3.168,8.208 3.168,3.312 7.632,3.312 4.464,0 7.632,-3.456 3.168,-3.456 3.168,-8.064 0,-5.328 -6.912,-9.216 -2.304,-1.296 -7.2,-4.032 -4.896,-2.736 -9.216,-5.184 -7.92,-4.608 -11.808,-11.52 -3.744,-7.056 -3.744,-15.84 0,-8.064 3.888,-14.4 3.888,-6.48 10.224,-10.224 6.48,-3.744 13.968,-3.744 7.632,0 13.968,3.888 6.48,3.744 10.224,10.224 3.888,6.336 3.888,14.256 v 11.808 q 0,0.576 -0.576,0.576 h -16.128 q -0.576,0 -0.576,-0.576 l -0.144,-11.808 q 0,-5.04 -3.168,-8.208 -3.168,-3.168 -7.488,-3.168 -4.464,0 -7.632,3.456 -3.168,3.312 -3.168,7.92 0,4.752 2.016,7.92 2.016,3.168 7.344,6.048 0.72,0.432 2.736,1.584 2.16,1.008 4.608,2.448 2.448,1.296 4.32,2.304 2.016,1.008 2.448,1.296 7.2,4.032 11.376,9.936 4.176,5.76 4.176,14.256 0,8.208 -3.888,14.832 -3.744,6.48 -10.224,10.368 -6.336,3.744 -14.112,3.744 z"
         style="font-size:144px;font-family:Staatliches;fill:url(#grad2)"
         id="path373" />
    </g>
  </g>
  <g
     aria-label="feat. MtF.wiki &amp; FtM.wiki"
     id="text304"
     style="font-size:40px;font-family:Aldhabi;-inkscape-font-specification:'Aldhabi, Normal';text-align:center;text-anchor:middle">
    <path
       d="m 31.228107,434.20694 h 4.92 v -22.48 c 0,-2.08 1.16,-3.24 3.24,-3.24 1,0 2.24,0.24 3,0.6 l 1.04,-3.68 c -1.24,-0.68 -2.8,-1.16 -4.44,-1.16 -4.64,0 -7.76,3.16 -7.76,7.92 z m -3,-15.36 h 13.52 v -4.08 h -13.52 z"
       style="-inkscape-font-specification:'Cantarell Bold';fill:#4d4d4d"
       id="path457" />
    <path
       d="m 54.708129,434.60694 c 2.32,0 4.76,-0.44 6.88,-1.32 l -1.12,-3.56 c -1.56,0.64 -3.28,1 -4.92,1 -4.2,0 -6.44,-2.32 -6.44,-6.84 0,-3.64 1.52,-5.56 4.24,-5.56 2.52,0 3.96,1.6 3.96,4.48 h -8.88 v 3.12 h 13.48 c 0.12,-0.8 0.2,-2 0.2,-2.92 0,-5.28 -3.24,-8.64 -8.4,-8.64 -5.8,0 -9.68,4.16 -9.68,10.2 0,6.24 4.04,10.04 10.68,10.04 z"
       style="-inkscape-font-specification:'Cantarell Bold';fill:#4d4d4d"
       id="path459" />
    <path
       d="m 78.908156,434.20694 h 3.64 v -11.68 c 0,-5.24 -3,-8.16 -8.72,-8.16 -2.8,0 -5.76,0.72 -8.04,1.88 l 1.2,3.56 c 2.04,-0.8 3.96,-1.2 5.76,-1.2 3.12,0 4.8,1.2 4.8,3.52 v 8.36 z m -6.8,0.4 c 4.28,0 7.4,-2.44 8.32,-6.64 l -1.64,-0.76 c -0.68,2.08 -2.64,3.4 -5,3.4 -1.96,0 -3.28,-1 -3.28,-2.44 0,-1.88 2.28,-2.64 7.88,-2.64 v -2.84 c -9,0 -13,1.88 -13,6.16 0,3.48 2.64,5.76 6.72,5.76 z"
       style="-inkscape-font-specification:'Cantarell Bold';fill:#4d4d4d"
       id="path461" />
    <path
       d="m 95.628161,434.48694 c 1.36,0 2.76,-0.24 4.04,-0.68 l -1.04,-3.64 c -0.56,0.24 -1.28,0.36 -1.88,0.36 -1.84,0 -3,-1.08 -3,-2.72 v -18.68 h -5.04 v 18.96 c 0,3.96 2.6,6.4 6.92,6.4 z m -9.6,-15.64 h 12.64 v -4.08 h -12.64 z"
       style="-inkscape-font-specification:'Cantarell Bold';fill:#4d4d4d"
       id="path463" />
    <path
       d="m 105.78814,434.60694 c 2.04,0 3.44,-1.44 3.44,-3.4 0,-2.04 -1.4,-3.48 -3.44,-3.48 -2.04,0 -3.4,1.44 -3.4,3.48 0,1.96 1.36,3.4 3.4,3.4 z"
       style="-inkscape-font-specification:'Cantarell Bold';fill:#4d4d4d"
       id="path465" />
    <path
       d="m 122.8681,434.20694 h 4.96 v -20.64 l -0.76,0.56 8.12,15.8 h 3.96 l 7.88,-15.8 -0.44,-0.48 v 20.56 h 4.96 v -27.76 h -4.96 l -10.4,20.36 h 2.44 l -10.68,-20.36 h -5.08 z"
       style="-inkscape-font-specification:'Cantarell Bold';fill:#4d4d4d"
       id="path467" />
    <path
       d="m 165.38806,434.48694 c 1.36,0 2.76,-0.24 4.04,-0.68 l -1.04,-3.64 c -0.56,0.24 -1.28,0.36 -1.88,0.36 -1.84,0 -3,-1.08 -3,-2.72 v -18.68 h -5.04 v 18.96 c 0,3.96 2.6,6.4 6.92,6.4 z m -9.6,-15.64 h 12.64 v -4.08 h -12.64 z"
       style="-inkscape-font-specification:'Cantarell Bold';fill:#4d4d4d"
       id="path469" />
    <path
       d="m 173.38804,434.20694 h 5.2 v -11.52 h 12.04 v -4.52 h -12.04 v -7.2 h 13.32 v -4.52 h -18.52 z"
       style="-inkscape-font-specification:'Cantarell Bold';fill:#4d4d4d"
       id="path471" />
    <path
       d="m 198.70806,434.60694 c 2.04,0 3.44,-1.44 3.44,-3.4 0,-2.04 -1.4,-3.48 -3.44,-3.48 -2.04,0 -3.4,1.44 -3.4,3.48 0,1.96 1.36,3.4 3.4,3.4 z"
       style="-inkscape-font-specification:'Cantarell Bold';fill:#4d4d4d"
       id="path473" />
    <path
       d="m 211.02806,434.20694 h 4.88 l 5.2,-16.4 h -1.76 l 5.64,16.4 h 5.12 l 6.48,-19.44 h -5 l -4.84,17 h 1.92 l -5.44,-16.92 h -5.12 l -5.24,17.16 h 1.68 l -4.64,-17.24 h -5.6 z"
       style="-inkscape-font-specification:'Cantarell Bold';fill:#4d4d4d"
       id="path475" />
    <path
       d="m 239.66806,434.20694 h 5.08 v -19.44 h -5.08 z m 2.56,-23 c 1.92,0 3.16,-1.24 3.16,-3.16 0,-1.92 -1.24,-3.16 -3.16,-3.16 -1.88,0 -3.12,1.24 -3.12,3.16 0,1.92 1.24,3.16 3.12,3.16 z"
       style="-inkscape-font-specification:'Cantarell Bold';fill:#4d4d4d"
       id="path477" />
    <path
       d="m 262.82803,434.20694 h 6.56 l -8.72,-11.6 -0.28,2.12 8.24,-9.96 h -5.92 l -7.36,9.16 z m -12.28,0 h 5.04 v -29.56 h -5.04 z"
       style="-inkscape-font-specification:'Cantarell Bold';fill:#4d4d4d"
       id="path479" />
    <path
       d="m 272.18804,434.20694 h 5.08 v -19.44 h -5.08 z m 2.56,-23 c 1.92,0 3.16,-1.24 3.16,-3.16 0,-1.92 -1.24,-3.16 -3.16,-3.16 -1.88,0 -3.12,1.24 -3.12,3.16 0,1.92 1.24,3.16 3.12,3.16 z"
       style="-inkscape-font-specification:'Cantarell Bold';fill:#4d4d4d"
       id="path481" />
    <path
       d="m 299.828,434.64694 c 6.04,0 11.48,-4.2 14.84,-11.76 l -3.52,-2.12 c -3,6.44 -6.6,9.76 -10.64,9.76 -2.88,0 -4.88,-1.76 -4.88,-4.36 0,-6.8 13.92,-5.52 13.92,-13.68 0,-3.8 -3.04,-6.44 -7.52,-6.44 -4.72,0 -7.92,3 -7.92,7.48 0,5.04 3.88,9.52 18,21.08 l 2.84,-3.24 c -12.6,-9.92 -16.16,-13.76 -16.16,-17.84 0,-2.24 1.08,-3.48 3.04,-3.48 1.8,0 3.08,1.08 3.08,2.56 0,5.2 -14.2,4.24 -14.2,13.88 0,4.84 3.72,8.16 9.12,8.16 z"
       style="-inkscape-font-specification:'Cantarell Bold';fill:#4d4d4d"
       id="path483" />
    <path
       d="m 328.58795,434.20694 h 5.2 v -11.52 h 12.04 v -4.52 h -12.04 v -7.2 h 13.32 v -4.52 h -18.52 z"
       style="-inkscape-font-specification:'Cantarell Bold';fill:#4d4d4d"
       id="path485" />
    <path
       d="m 359.06795,434.48694 c 1.36,0 2.76,-0.24 4.04,-0.68 l -1.04,-3.64 c -0.56,0.24 -1.28,0.36 -1.88,0.36 -1.84,0 -3,-1.08 -3,-2.72 v -18.68 h -5.04 v 18.96 c 0,3.96 2.6,6.4 6.92,6.4 z m -9.6,-15.64 h 12.64 v -4.08 h -12.64 z"
       style="-inkscape-font-specification:'Cantarell Bold';fill:#4d4d4d"
       id="path487" />
    <path
       d="m 367.06793,434.20694 h 4.96 v -20.64 l -0.76,0.56 8.12,15.8 h 3.96 l 7.88,-15.8 -0.44,-0.48 v 20.56 h 4.96 v -27.76 h -4.96 l -10.4,20.36 h 2.44 l -10.68,-20.36 h -5.08 z"
       style="-inkscape-font-specification:'Cantarell Bold';fill:#4d4d4d"
       id="path489" />
    <path
       d="m 404.42788,434.60694 c 2.04,0 3.44,-1.44 3.44,-3.4 0,-2.04 -1.4,-3.48 -3.44,-3.48 -2.04,0 -3.4,1.44 -3.4,3.48 0,1.96 1.36,3.4 3.4,3.4 z"
       style="-inkscape-font-specification:'Cantarell Bold';fill:#4d4d4d"
       id="path491" />
    <path
       d="m 416.7479,434.20694 h 4.88 l 5.2,-16.4 h -1.76 l 5.64,16.4 h 5.12 l 6.48,-19.44 h -5 l -4.84,17 h 1.92 l -5.44,-16.92 h -5.12 l -5.24,17.16 h 1.68 l -4.64,-17.24 h -5.6 z"
       style="-inkscape-font-specification:'Cantarell Bold';fill:#4d4d4d"
       id="path493" />
    <path
       d="m 445.38789,434.20694 h 5.08 v -19.44 h -5.08 z m 2.56,-23 c 1.92,0 3.16,-1.24 3.16,-3.16 0,-1.92 -1.24,-3.16 -3.16,-3.16 -1.88,0 -3.12,1.24 -3.12,3.16 0,1.92 1.24,3.16 3.12,3.16 z"
       style="-inkscape-font-specification:'Cantarell Bold';fill:#4d4d4d"
       id="path495" />
    <path
       d="m 468.54786,434.20694 h 6.56 l -8.72,-11.6 -0.28,2.12 8.24,-9.96 h -5.92 l -7.36,9.16 z m -12.28,0 h 5.04 v -29.56 h -5.04 z"
       style="-inkscape-font-specification:'Cantarell Bold';fill:#4d4d4d"
       id="path497" />
    <path
       d="m 477.90788,434.20694 h 5.08 v -19.44 h -5.08 z m 2.56,-23 c 1.92,0 3.16,-1.24 3.16,-3.16 0,-1.92 -1.24,-3.16 -3.16,-3.16 -1.88,0 -3.12,1.24 -3.12,3.16 0,1.92 1.24,3.16 3.12,3.16 z"
       style="-inkscape-font-specification:'Cantarell Bold';fill:#4d4d4d"
       id="path499" />
  </g>
</svg>
