<?xml version="1.0" encoding="UTF-8" standalone="no"?>
<svg
   width="512"
   height="512"
   viewBox="0 0 512 512"
   version="1.1"
   id="svg5"
   xmlns="http://www.w3.org/2000/svg"
   xmlns:svg="http://www.w3.org/2000/svg">
   <defs
      id="defs7">
      <linearGradient
         id="grad2"
         x1="0%"
         y1="0%"
         x2="100%"
         y2="100%">
         <stop
            offset="0%"
            style="stop-color:#5BCEFA;stop-opacity:1"
            id="stop2" />
         <stop
            offset="60%"
            style="stop-color:#F5A9B8;stop-opacity:1"
            id="stop4" />
      </linearGradient>
   </defs>
   <g
      id="g15">
      <g
         aria-label="Project Trans"
         id="text13">
         <path
            d="m 41.48,235 q -0.72,0 -0.72,-0.72 l 0.288,-98.928 q 0,-0.576 0.576,-0.576 h 27.648 q 13.248,0 20.88,8.064 7.776,8.064 7.776,21.888 0,10.224 -4.032,17.712 -4.032,7.488 -10.512,11.52 -6.48,4.032 -14.112,4.032 H 58.328 v 36.288 q 0,0.72 -0.72,0.72 z m 16.848,-54.432 h 10.944 q 4.608,0 7.92,-4.32 3.456,-4.464 3.456,-11.52 0,-5.616 -3.024,-9.216 -3.024,-3.6 -8.352,-3.6 l -10.944,0.144 z"
            style="font-size:144px;font-family:Staatliches;fill:url(#grad2)"
            id="path351" />
         <path
            d="m 107.14411,235 q -0.576,0 -0.576,-0.72 l 0.288,-98.928 q 0,-0.576 0.576,-0.576 h 29.088 q 7.776,0 14.256,3.888 6.624,3.744 10.512,10.224 3.888,6.336 3.888,14.4 0,5.328 -1.584,9.648 -1.584,4.176 -3.744,7.2 -2.16,2.88 -3.888,4.32 7.776,8.64 7.776,20.304 l 0.144,29.52 q 0,0.72 -0.72,0.72 h -16.272 q -0.576,0 -0.576,-0.432 V 204.76 q 0,-5.184 -3.744,-8.928 -3.6,-3.888 -8.928,-3.888 h -9.504 l -0.144,42.336 q 0,0.72 -0.576,0.72 z m 16.992,-60.336 h 12.384 q 4.464,0 7.92,-3.312 3.456,-3.312 3.456,-8.064 0,-4.608 -3.456,-7.92 -3.312,-3.312 -7.92,-3.312 h -12.384 z"
            style="font-size:144px;font-family:Staatliches;fill:url(#grad2)"
            id="path353" />
         <path
            d="m 201.89628,236.44 q -7.776,0 -14.256,-3.888 -6.336,-4.032 -10.224,-10.512 -3.888,-6.624 -3.888,-14.544 l 0.144,-45.648 q 0,-7.92 3.744,-14.4 3.888,-6.48 10.368,-10.368 6.48,-3.888 14.112,-3.888 7.776,0 14.112,3.888 6.336,3.888 10.08,10.368 3.888,6.48 3.888,14.4 l 0.144,45.648 q 0,7.92 -3.888,14.544 -3.744,6.48 -10.224,10.512 -6.336,3.888 -14.112,3.888 z m 0,-17.424 q 4.32,0 7.488,-3.456 3.312,-3.6 3.312,-8.064 l -0.144,-45.648 q 0,-4.752 -3.024,-8.064 -3.024,-3.312 -7.632,-3.312 -4.464,0 -7.632,3.312 -3.168,3.168 -3.168,8.064 v 45.648 q 0,4.752 3.168,8.208 3.168,3.312 7.632,3.312 z"
            style="font-size:144px;font-family:Staatliches;fill:url(#grad2)"
            id="path355" />
         <path
            d="m 264.68038,236.44 q -8.064,0 -14.544,-3.744 -6.336,-3.888 -10.08,-10.512 -3.6,-6.768 -3.6,-15.12 v -6.624 q 0,-0.576 0.576,-0.576 h 16.272 q 0.576,0 0.576,0.72 v 6.48 q 0,5.328 3.024,8.64 3.024,3.312 7.776,3.312 4.32,0 7.488,-3.6 3.168,-3.6 3.168,-8.352 v -71.568 q 0,-0.576 0.576,-0.576 h 16.128 q 0.576,0 0.576,0.72 l 0.144,71.424 q 0,7.92 -3.888,14.688 -3.744,6.624 -10.08,10.656 -6.336,4.032 -14.112,4.032 z"
            style="font-size:144px;font-family:Staatliches;fill:url(#grad2)"
            id="path357" />
         <path
            d="m 304.28031,235 q -0.576,0 -0.576,-0.72 l 0.144,-98.928 q 0,-0.576 0.576,-0.576 h 46.224 q 0.576,0 0.576,0.72 v 16.128 q 0,0.576 -0.576,0.576 h -29.52 v 22.464 h 29.52 q 0.576,0 0.576,0.576 l 0.144,16.272 q 0,0.576 -0.576,0.576 h -29.664 v 25.2 h 29.664 q 0.576,0 0.576,0.72 v 16.416 q 0,0.576 -0.576,0.576 z"
            style="font-size:144px;font-family:Staatliches;fill:url(#grad2)"
            id="path359" />
         <path
            d="m 388.37621,236.44 q -7.92,0 -14.4,-3.888 -6.336,-4.032 -10.08,-10.656 -3.744,-6.624 -3.744,-14.832 l 0.144,-44.928 q 0,-7.92 3.6,-14.4 3.744,-6.624 10.08,-10.512 6.48,-4.032 14.4,-4.032 7.92,0 14.256,3.888 6.336,3.888 10.08,10.512 3.744,6.48 3.744,14.544 v 6.624 q 0,0.576 -0.576,0.576 h -16.128 q -0.576,0 -0.576,-0.576 v -6.624 q 0,-4.752 -3.168,-8.208 -3.024,-3.456 -7.632,-3.456 -5.184,0 -7.92,3.6 -2.736,3.456 -2.736,8.064 v 44.928 q 0,5.328 3.024,8.64 3.168,3.312 7.632,3.312 4.608,0 7.632,-3.6 3.168,-3.744 3.168,-8.352 v -6.624 q 0,-0.576 0.576,-0.576 h 16.272 q 0.576,0 0.576,0.576 v 6.624 q 0,8.208 -3.888,14.832 -3.744,6.624 -10.08,10.656 -6.336,3.888 -14.256,3.888 z"
            style="font-size:144px;font-family:Staatliches;fill:url(#grad2)"
            id="path361" />
         <path
            d="m 439.64001,235 q -0.576,0 -0.576,-0.72 V 152.2 h -18.72 q -0.72,0 -0.72,-0.72 l 0.144,-16.128 q 0,-0.576 0.576,-0.576 h 54.72 q 0.72,0 0.72,0.576 v 16.128 q 0,0.72 -0.576,0.72 h -18.864 l 0.144,82.08 q 0,0.72 -0.576,0.72 z"
            style="font-size:144px;font-family:Staatliches;fill:url(#grad2)"
            id="path363" />
         <path
            d="m 55.16,375 q -0.576,0 -0.576,-0.72 V 292.2 h -18.72 q -0.72,0 -0.72,-0.72 l 0.144,-16.128 q 0,-0.576 0.576,-0.576 h 54.72 q 0.72,0 0.72,0.576 v 16.128 q 0,0.72 -0.576,0.72 H 71.864 l 0.144,82.08 q 0,0.72 -0.576,0.72 z"
            style="font-size:144px;font-family:Staatliches;fill:url(#grad2)"
            id="path365" />
         <path
            d="m 98.935945,375 q -0.576,0 -0.576,-0.72 l 0.288,-98.928 q 0,-0.576 0.576,-0.576 h 29.088005 q 7.776,0 14.256,3.888 6.624,3.744 10.512,10.224 3.888,6.336 3.888,14.4 0,5.328 -1.584,9.648 -1.584,4.176 -3.744,7.2 -2.16,2.88 -3.888,4.32 7.776,8.64 7.776,20.304 l 0.144,29.52 q 0,0.72 -0.72,0.72 h -16.272 q -0.576,0 -0.576,-0.432 V 344.76 q 0,-5.184 -3.744,-8.928 -3.6,-3.888 -8.928,-3.888 h -9.504 l -0.144,42.336 q 0,0.72 -0.576,0.72 z m 16.992005,-60.336 h 12.384 q 4.464,0 7.92,-3.312 3.456,-3.312 3.456,-8.064 0,-4.608 -3.456,-7.92 -3.312,-3.312 -7.92,-3.312 h -12.384 z"
            style="font-size:144px;font-family:Staatliches;fill:url(#grad2)"
            id="path367" />
         <path
            d="m 162.872,374.28 17.856,-98.928 q 0.144,-0.576 0.72,-0.576 h 20.88 q 0.576,0 0.72,0.576 l 17.136,98.928 q 0.144,0.72 -0.576,0.72 h -15.984 q -0.576,0 -0.72,-0.72 l -1.584,-10.512 h -19.584 l -1.584,10.512 q -0.144,0.72 -0.72,0.72 h -15.984 q -0.576,0 -0.576,-0.72 z m 21.744,-25.92 h 13.824 l -5.904,-40.464 -0.864,-5.328 -0.576,5.328 z"
            style="font-size:144px;font-family:Staatliches;fill:url(#grad2)"
            id="path369" />
         <path
            d="m 230.552,375 q -1.152,0 -1.152,-1.008 l -0.144,-98.064 q 0,-1.152 1.152,-1.152 h 12.96 l 24.336,56.736 -0.72,-55.584 q 0,-1.152 1.296,-1.152 h 14.256 q 0.864,0 0.864,1.152 l 0.144,98.208 q 0,0.864 -0.72,0.864 h -12.672 l -24.912,-52.992 1.008,51.84 q 0,1.152 -1.296,1.152 z"
            style="font-size:144px;font-family:Staatliches;fill:url(#grad2)"
            id="path371" />
         <path
            d="m 320.5521,376.44 q -7.776,0 -14.256,-3.888 -6.336,-4.032 -10.224,-10.512 -3.744,-6.624 -3.744,-14.544 v -6.624 q 0,-0.72 0.72,-0.72 h 16.128 q 0.576,0 0.576,0.72 v 6.624 q 0,4.752 3.168,8.208 3.168,3.312 7.632,3.312 4.464,0 7.632,-3.456 3.168,-3.456 3.168,-8.064 0,-5.328 -6.912,-9.216 -2.304,-1.296 -7.2,-4.032 -4.896,-2.736 -9.216,-5.184 -7.92,-4.608 -11.808,-11.52 -3.744,-7.056 -3.744,-15.84 0,-8.064 3.888,-14.4 3.888,-6.48 10.224,-10.224 6.48,-3.744 13.968,-3.744 7.632,0 13.968,3.888 6.48,3.744 10.224,10.224 3.888,6.336 3.888,14.256 v 11.808 q 0,0.576 -0.576,0.576 h -16.128 q -0.576,0 -0.576,-0.576 l -0.144,-11.808 q 0,-5.04 -3.168,-8.208 -3.168,-3.168 -7.488,-3.168 -4.464,0 -7.632,3.456 -3.168,3.312 -3.168,7.92 0,4.752 2.016,7.92 2.016,3.168 7.344,6.048 0.72,0.432 2.736,1.584 2.16,1.008 4.608,2.448 2.448,1.296 4.32,2.304 2.016,1.008 2.448,1.296 7.2,4.032 11.376,9.936 4.176,5.76 4.176,14.256 0,8.208 -3.888,14.832 -3.744,6.48 -10.224,10.368 -6.336,3.744 -14.112,3.744 z"
            style="font-size:144px;font-family:Staatliches;fill:url(#grad2)"
            id="path373" />
      </g>
   </g>
</svg>