<?xml version="1.0" encoding="UTF-8" standalone="no"?>
<svg
   width="512"
   height="512"
   viewBox="0 0 512 512"
   version="1.1"
   id="svg5"
   sodipodi:docname="es.svg"
   inkscape:version="1.2.2 (b0a8486541, 2022-12-01)"
   xmlns:inkscape="http://www.inkscape.org/namespaces/inkscape"
   xmlns:sodipodi="http://sodipodi.sourceforge.net/DTD/sodipodi-0.dtd"
   xmlns:xlink="http://www.w3.org/1999/xlink"
   xmlns="http://www.w3.org/2000/svg"
   xmlns:svg="http://www.w3.org/2000/svg">
   <sodipodi:namedview
      id="namedview18"
      pagecolor="#ffffff"
      bordercolor="#999999"
      borderopacity="1"
      inkscape:showpageshadow="0"
      inkscape:pageopacity="0"
      inkscape:pagecheckerboard="0"
      inkscape:deskcolor="#d1d1d1"
      showgrid="false"
      inkscape:zoom="0.8691406"
      inkscape:cx="323.30787"
      inkscape:cy="414.77754"
      inkscape:window-width="1862"
      inkscape:window-height="1011"
      inkscape:window-x="58"
      inkscape:window-y="32"
      inkscape:window-maximized="1"
      inkscape:current-layer="svg5" />
   <defs
      id="defs7">
      <linearGradient
         id="grad2"
         x1="0%"
         y1="0%"
         x2="100%"
         y2="100%">
         <stop
            offset="0%"
            style="stop-color:#5BCEFA;stop-opacity:1"
            id="stop2" />
         <stop
            offset="60%"
            style="stop-color:#F5A9B8;stop-opacity:1"
            id="stop4" />
      </linearGradient>
   </defs>
   <g
      id="g15"
      transform="translate(-10.65988,0.5475)">
      <g
         aria-label="Proyecto Trans"
         id="text13">
         <path
            d="M 41.075,235 Q 40.4,235 40.4,234.325 l 0.27,-92.745 q 0,-0.54 0.54,-0.54 h 25.92 q 12.42,0 19.575,7.56 7.29,7.56 7.29,20.52 0,9.585 -3.78,16.605 -3.78,7.02 -9.855,10.8 -6.075,3.78 -13.23,3.78 H 56.87 v 34.02 Q 56.87,235 56.195,235 Z M 56.87,183.97 h 10.26 q 4.32,0 7.425,-4.05 3.24,-4.185 3.24,-10.8 0,-5.265 -2.835,-8.64 -2.835,-3.375 -7.83,-3.375 l -10.26,0.135 z"
            style="-inkscape-font-specification:Staatliches;fill:url(#grad2)"
            id="path433" />
         <path
            d="m 102.6351,235 q -0.54,0 -0.54,-0.675 l 0.27,-92.745 q 0,-0.54 0.54,-0.54 h 27.27 q 7.29,0 13.365,3.645 6.21,3.51 9.855,9.585 3.645,5.94 3.645,13.5 0,4.995 -1.485,9.045 -1.485,3.915 -3.51,6.75 -2.025,2.7 -3.645,4.05 7.29,8.1 7.29,19.035 l 0.135,27.675 q 0,0.675 -0.675,0.675 h -15.255 q -0.54,0 -0.54,-0.405 V 206.65 q 0,-4.86 -3.51,-8.37 -3.375,-3.645 -8.37,-3.645 h -8.91 l -0.135,39.69 q 0,0.675 -0.54,0.675 z m 15.93,-56.565 h 11.61 q 4.185,0 7.425,-3.105 3.24,-3.105 3.24,-7.56 0,-4.32 -3.24,-7.425 -3.105,-3.105 -7.425,-3.105 h -11.61 z"
            style="-inkscape-font-specification:Staatliches;fill:url(#grad2)"
            id="path435" />
         <path
            d="m 191.46526,236.35 q -7.29,0 -13.365,-3.645 -5.94,-3.78 -9.585,-9.855 -3.645,-6.21 -3.645,-13.635 l 0.135,-42.795 q 0,-7.425 3.51,-13.5 3.645,-6.075 9.72,-9.72 6.075,-3.645 13.23,-3.645 7.29,0 13.23,3.645 5.94,3.645 9.45,9.72 3.645,6.075 3.645,13.5 l 0.135,42.795 q 0,7.425 -3.645,13.635 -3.51,6.075 -9.585,9.855 -5.94,3.645 -13.23,3.645 z m 0,-16.335 q 4.05,0 7.02,-3.24 3.105,-3.375 3.105,-7.56 l -0.135,-42.795 q 0,-4.455 -2.835,-7.56 -2.835,-3.105 -7.155,-3.105 -4.185,0 -7.155,3.105 -2.97,2.97 -2.97,7.56 v 42.795 q 0,4.455 2.97,7.695 2.97,3.105 7.155,3.105 z"
            style="-inkscape-font-specification:Staatliches;fill:url(#grad2)"
            id="path437" />
         <path
            d="m 238.58024,235 q -0.405,0 -0.405,-0.54 l 0.135,-38.34 -18.09,-54.54 q -0.135,-0.54 0.405,-0.54 h 14.985 q 0.675,0 0.81,0.54 l 9.99,36.315 10.125,-36.315 q 0.135,-0.54 0.675,-0.54 h 15.12 q 0.54,0 0.405,0.54 l -18.225,54 0.135,38.88 q 0,0.54 -0.54,0.54 z"
            style="-inkscape-font-specification:Staatliches;fill:url(#grad2)"
            id="path439" />
         <path
            d="m 280.70013,235 q -0.54,0 -0.54,-0.675 l 0.135,-92.745 q 0,-0.54 0.54,-0.54 h 43.335 q 0.54,0 0.54,0.675 v 15.12 q 0,0.54 -0.54,0.54 h -27.675 v 21.06 h 27.675 q 0.54,0 0.54,0.54 l 0.135,15.255 q 0,0.54 -0.54,0.54 h -27.81 v 23.625 h 27.81 q 0.54,0 0.54,0.675 v 15.39 q 0,0.54 -0.54,0.54 z"
            style="-inkscape-font-specification:Staatliches;fill:url(#grad2)"
            id="path441" />
         <path
            d="m 359.54005,236.35 q -7.425,0 -13.5,-3.645 -5.94,-3.78 -9.45,-9.99 -3.51,-6.21 -3.51,-13.905 l 0.135,-42.12 q 0,-7.425 3.375,-13.5 3.51,-6.21 9.45,-9.855 6.075,-3.78 13.5,-3.78 7.425,0 13.365,3.645 5.94,3.645 9.45,9.855 3.51,6.075 3.51,13.635 v 6.21 q 0,0.54 -0.54,0.54 h -15.12 q -0.54,0 -0.54,-0.54 v -6.21 q 0,-4.455 -2.97,-7.695 -2.835,-3.24 -7.155,-3.24 -4.86,0 -7.425,3.375 -2.565,3.24 -2.565,7.56 v 42.12 q 0,4.995 2.835,8.1 2.97,3.105 7.155,3.105 4.32,0 7.155,-3.375 2.97,-3.51 2.97,-7.83 v -6.21 q 0,-0.54 0.54,-0.54 h 15.255 q 0.54,0 0.54,0.54 v 6.21 q 0,7.695 -3.645,13.905 -3.51,6.21 -9.45,9.99 -5.94,3.645 -13.365,3.645 z"
            style="-inkscape-font-specification:Staatliches;fill:url(#grad2)"
            id="path443" />
         <path
            d="m 407.59986,235 q -0.54,0 -0.54,-0.675 v -76.95 h -17.55 q -0.675,0 -0.675,-0.675 l 0.135,-15.12 q 0,-0.54 0.54,-0.54 h 51.3 q 0.675,0 0.675,0.54 v 15.12 q 0,0.675 -0.54,0.675 h -17.685 l 0.135,76.95 q 0,0.675 -0.54,0.675 z"
            style="-inkscape-font-specification:Staatliches;fill:url(#grad2)"
            id="path445" />
         <path
            d="m 471.72476,236.35 q -7.29,0 -13.365,-3.645 -5.94,-3.78 -9.585,-9.855 -3.645,-6.21 -3.645,-13.635 l 0.135,-42.795 q 0,-7.425 3.51,-13.5 3.645,-6.075 9.72,-9.72 6.075,-3.645 13.23,-3.645 7.29,0 13.23,3.645 5.94,3.645 9.45,9.72 3.645,6.075 3.645,13.5 l 0.135,42.795 q 0,7.425 -3.645,13.635 -3.51,6.075 -9.585,9.855 -5.94,3.645 -13.23,3.645 z m 0,-16.335 q 4.05,0 7.02,-3.24 3.105,-3.375 3.105,-7.56 l -0.135,-42.795 q 0,-4.455 -2.835,-7.56 -2.835,-3.105 -7.155,-3.105 -4.185,0 -7.155,3.105 -2.97,2.97 -2.97,7.56 v 42.795 q 0,4.455 2.97,7.695 2.97,3.105 7.155,3.105 z"
            style="-inkscape-font-specification:Staatliches;fill:url(#grad2)"
            id="path447" />
         <path
            d="m 53.9,370 q -0.54,0 -0.54,-0.675 v -76.95 H 35.81 q -0.675,0 -0.675,-0.675 l 0.135,-15.12 q 0,-0.54 0.54,-0.54 h 51.3 q 0.675,0 0.675,0.54 v 15.12 q 0,0.675 -0.54,0.675 H 69.56 l 0.135,76.95 q 0,0.675 -0.54,0.675 z"
            id="path449"
            style="fill:url(#grad2)" />
         <path
            d="m 94.939947,370 q -0.54,0 -0.54,-0.675 l 0.27,-92.745 q 0,-0.54 0.54,-0.54 h 27.270003 q 7.29,0 13.365,3.645 6.21,3.51 9.855,9.585 3.645,5.94 3.645,13.5 0,4.995 -1.485,9.045 -1.485,3.915 -3.51,6.75 -2.025,2.7 -3.645,4.05 7.29,8.1 7.29,19.035 l 0.135,27.675 q 0,0.675 -0.675,0.675 h -15.255 q -0.54,0 -0.54,-0.405 V 341.65 q 0,-4.86 -3.51,-8.37 -3.375,-3.645 -8.37,-3.645 h -8.91 l -0.135,39.69 q 0,0.675 -0.54,0.675 z m 15.930003,-56.565 h 11.61 q 4.185,0 7.425,-3.105 3.24,-3.105 3.24,-7.56 0,-4.32 -3.24,-7.425 -3.105,-3.105 -7.425,-3.105 h -11.61 z"
            id="path451"
            style="fill:url(#grad2)" />
         <path
            d="m 154.87999,369.325 16.74,-92.745 q 0.135,-0.54 0.675,-0.54 h 19.575 q 0.54,0 0.675,0.54 l 16.065,92.745 q 0.135,0.675 -0.54,0.675 h -14.985 q -0.54,0 -0.675,-0.675 l -1.485,-9.855 h -18.36 l -1.485,9.855 q -0.135,0.675 -0.675,0.675 h -14.985 q -0.54,0 -0.54,-0.675 z m 20.385,-24.3 h 12.96 l -5.535,-37.935 -0.81,-4.995 -0.54,4.995 z"
            id="path453"
            style="fill:url(#grad2)" />
         <path
            d="m 218.33,370 q -1.08,0 -1.08,-0.945 l -0.135,-91.935 q 0,-1.08 1.08,-1.08 h 12.15 l 22.815,53.19 -0.675,-52.11 q 0,-1.08 1.215,-1.08 h 13.365 q 0.81,0 0.81,1.08 l 0.135,92.07 q 0,0.81 -0.675,0.81 h -11.88 l -23.355,-49.68 0.945,48.6 q 0,1.08 -1.215,1.08 z"
            id="path455"
            style="fill:url(#grad2)" />
         <path
            d="m 302.70509,371.35 q -7.29,0 -13.365,-3.645 -5.94,-3.78 -9.585,-9.855 -3.51,-6.21 -3.51,-13.635 v -6.21 q 0,-0.675 0.675,-0.675 h 15.12 q 0.54,0 0.54,0.675 v 6.21 q 0,4.455 2.97,7.695 2.97,3.105 7.155,3.105 4.185,0 7.155,-3.24 2.97,-3.24 2.97,-7.56 0,-4.995 -6.48,-8.64 -2.16,-1.215 -6.75,-3.78 -4.59,-2.565 -8.64,-4.86 -7.425,-4.32 -11.07,-10.8 -3.51,-6.615 -3.51,-14.85 0,-7.56 3.645,-13.5 3.645,-6.075 9.585,-9.585 6.075,-3.51 13.095,-3.51 7.155,0 13.095,3.645 6.075,3.51 9.585,9.585 3.645,5.94 3.645,13.365 v 11.07 q 0,0.54 -0.54,0.54 h -15.12 q -0.54,0 -0.54,-0.54 l -0.135,-11.07 q 0,-4.725 -2.97,-7.695 -2.97,-2.97 -7.02,-2.97 -4.185,0 -7.155,3.24 -2.97,3.105 -2.97,7.425 0,4.455 1.89,7.425 1.89,2.97 6.885,5.67 0.675,0.405 2.565,1.485 2.025,0.945 4.32,2.295 2.295,1.215 4.05,2.16 1.89,0.945 2.295,1.215 6.75,3.78 10.665,9.315 3.915,5.4 3.915,13.365 0,7.695 -3.645,13.905 -3.51,6.075 -9.585,9.72 -5.94,3.51 -13.23,3.51 z"
            id="path457"
            style="fill:url(#grad2)" />
      </g>
   </g>
</svg>