<?xml version="1.0" encoding="UTF-8" standalone="no"?>
<svg
   width="512"
   height="512"
   viewBox="0 0 512 512"
   version="1.1"
   id="svg5"
   xmlns:xlink="http://www.w3.org/1999/xlink"
   xmlns="http://www.w3.org/2000/svg"
   xmlns:svg="http://www.w3.org/2000/svg">
   <defs
      id="defs7">
      <linearGradient
         id="grad2"
         x1="0%"
         y1="0%"
         x2="100%"
         y2="100%">
         <stop
            offset="0%"
            style="stop-color:#5BCEFA;stop-opacity:1"
            id="stop2" />
         <stop
            offset="60%"
            style="stop-color:#F5A9B8;stop-opacity:1"
            id="stop4" />
      </linearGradient>
   </defs>
  <g
     id="g15">
    <g
       aria-label="プロジェクト トランス"
       id="text13"
       transform="translate(-24.056245)">
      <path
         d="m 129.032,129.304 c -6.768,-0.288 -12.528,5.04 -12.528,11.664 0,1.296 0.144,2.448 0.432,3.6 H 64.52 v 15.552 h 40.32 c -2.016,35.568 -11.952,57.744 -38.304,69.984 l 6.48,14.112 c 29.952,-12.096 46.656,-38.016 47.664,-93.744 2.016,1.728 4.608,2.88 7.488,3.024 6.624,0.288 12.24,-5.04 12.384,-11.664 0.144,-6.624 -4.896,-12.24 -11.52,-12.528 z m -0.576,16.704 c -2.592,-0.144 -4.608,-2.16 -4.608,-4.752 0,-2.592 2.304,-4.608 4.896,-4.608 2.592,0 4.608,2.304 4.464,4.896 -0.144,2.592 -2.304,4.608 -4.752,4.464 z"
         style="-inkscape-font-specification:'bananaslip plus, Normal';fill:url(#grad2)"
         id="path652" />
      <path
         d="m 141.9441,144.856 v 99.648 h 63.072 v -99.648 z m 15.552,84.096 v -68.544 h 31.968 v 68.544 z"
         style="-inkscape-font-specification:'bananaslip plus, Normal';fill:url(#grad2)"
         id="path654" />
      <path
         d="m 234.7762,144.856 -8.784,12.96 21.6,14.544 8.64,-12.96 z m 45.648,0 v 18.432 h 8.928 v -18.432 z m 22.176,18.432 v -18.432 h -9.072 v 18.432 z m -75.024,9.072 -8.64,12.816 21.456,14.544 8.784,-12.816 z m 6.048,72.144 c 34.56,-12.672 54.432,-33.696 63.36,-63.648 l -13.968,-6.768 c -9.36,26.64 -21.312,42.48 -56.592,56.592 z"
         style="-inkscape-font-specification:'bananaslip plus, Normal';fill:url(#grad2)"
         id="path656" />
      <path
         d="M 345.8963,228.952 V 175.96 h 16.128 v -15.552 h -47.664 v 15.552 h 15.984 v 52.992 h -19.152 v 15.552 h 54 v -15.552 z"
         id="path658"
         style="fill:url(#grad2)" />
      <path
         d="m 415.8484,160.408 v 26.496 c 0,24.912 -10.368,36.72 -30.528,43.488 l 6.624,14.112 c 20.736,-6.192 39.456,-22.896 39.456,-57.6 v -42.048 h -32.976 c 0.144,-2.592 0.288,-5.184 0.288,-7.776 h -15.552 c 0,19.44 -3.888,35.712 -14.112,49.104 l 12.672,9.072 c 7.632,-9.792 12.384,-21.6 14.976,-34.848 z"
         id="path660"
         style="fill:url(#grad2)" />
      <path
         d="m 447.20849,244.504 h 15.552 v -53.856 l 28.944,7.488 3.888,-15.12 -32.832,-8.496 v -37.44 h -15.552 z"
         style="-inkscape-font-specification:'bananaslip plus, Normal';fill:url(#grad2)"
         id="path662" />
      <path
         d="M 75.608,370.36 H 91.16 v -53.856 l 28.944,7.488 3.888,-15.12 -32.832,-8.496 v -37.44 H 75.608 Z"
         style="-inkscape-font-specification:'bananaslip plus, Normal';fill:url(#grad2)"
         id="path664" />
      <path
         d="m 148.1361,270.712 v 15.552 h 50.832 v -15.552 z m 11.664,99.648 c 30.96,-12.672 41.904,-37.152 41.904,-76.32 h -56.304 v 15.552 h 40.176 c -1.872,19.296 -8.496,35.424 -32.4,46.656 z"
         style="-inkscape-font-specification:'bananaslip plus, Normal';fill:url(#grad2)"
         id="path666" />
      <path
         d="m 229.3042,270.712 -11.088,10.8 22.32,23.328 11.088,-10.944 z m 52.848,18.576 c -10.944,33.264 -25.632,51.84 -60.192,67.68 l 7.92,13.392 c 33.984,-14.256 56.88,-37.728 66.528,-75.024 z"
         style="-inkscape-font-specification:'bananaslip plus, Normal';fill:url(#grad2)"
         id="path668" />
      <path
         d="m 308.8883,270.712 v 15.552 h 33.552 c -2.016,35.424 -11.952,57.6 -38.304,69.984 l 6.624,14.112 c 14.256,-5.76 25.488,-14.688 33.408,-28.512 l 18.288,28.512 13.104,-8.352 -23.904,-37.296 c 4.464,-14.256 6.768,-31.824 6.768,-54 z"
         style="-inkscape-font-specification:'bananaslip plus, Normal';fill:url(#grad2)"
         id="path670" />
    </g>
  </g>
</svg>
