<?xml version="1.0" encoding="UTF-8" standalone="no"?>
<svg
   width="512"
   height="512"
   viewBox="0 0 512 512"
   version="1.1"
   id="svg5"
   xmlns:xlink="http://www.w3.org/1999/xlink"
   xmlns="http://www.w3.org/2000/svg"
   xmlns:svg="http://www.w3.org/2000/svg">
   <defs
      id="defs7">
      <linearGradient
         id="grad2"
         x1="0%"
         y1="0%"
         x2="100%"
         y2="100%">
         <stop
            offset="0%"
            style="stop-color:#5BCEFA;stop-opacity:1"
            id="stop2" />
         <stop
            offset="60%"
            style="stop-color:#F5A9B8;stop-opacity:1"
            id="stop4" />
      </linearGradient>
   </defs>
   <g
      id="g15">
      <g
         aria-label="跨儿计划"
         id="text13"
         transform="translate(-8.031835,74.395641)">
         <path
            d="m 121.256,249.688 c 5.76,-0.288 11.088,-1.728 14.4,-5.76 3.168,-4.032 4.608,-13.968 5.472,-31.536 0.288,-2.304 0.576,-6.912 0.576,-6.912 h -35.28 l 1.584,-7.344 h 38.016 v -16.848 h -8.064 c 2.448,-4.752 7.632,-11.664 10.656,-14.688 -4.896,-4.32 -10.512,-12.384 -14.4,-19.584 h 11.952 V 129.16 h -28.08 c 1.008,-3.6 2.304,-6.912 3.168,-10.08 l -14.832,-4.752 c -1.44,4.752 -3.024,10.8 -4.896,14.832 H 84.68 v 17.856 h 6.768 C 88.136,151.912 83.96,157.24 80.36,160.552 V 118.36 H 42.488 v 50.112 h 15.84 v 50.832 l -2.304,1.008 v -42.624 h -12.96 v 46.224 l -4.032,1.152 4.032,18.864 c 6.768,-2.304 14.4,-4.896 22.32,-7.776 l 1.296,-0.576 c 0.288,0 0.432,-0.144 0.72,-0.144 l 1.44,-0.576 c 0.144,0 0.432,-0.144 0.576,-0.288 l 1.44,-0.432 c 0.864,-0.432 1.872,-0.72 2.736,-1.008 l 1.44,-0.576 c 0.72,-0.288 1.296,-0.432 2.016,-0.72 l 1.44,-0.576 c 2.736,-1.008 5.328,-2.016 8.064,-3.024 l -2.304,-17.136 -11.952,3.744 v -15.696 h 8.208 V 181.72 h -8.208 v -13.248 h 8.064 v -1.584 c 0.432,1.44 1.008,3.168 1.584,5.04 l 0.432,1.44 c 0.864,3.168 1.872,6.192 2.304,7.92 h -2.016 v 16.848 H 93.32 c -1.728,7.776 -3.744,17.424 -5.616,23.76 h 36.864 c -0.432,5.616 -1.296,9.072 -2.592,10.368 -1.44,1.008 -3.024,1.008 -5.472,1.008 -3.744,0 -14.256,0 -19.152,-0.576 l 0.576,16.848 c 10.368,0.432 19.152,0.432 23.328,0.144 z m -64.224,-98.64 v -15.12 h 8.928 v 15.12 z m 46.944,8.784 c 2.304,-3.744 4.176,-9.216 6.192,-12.816 h 7.344 c 1.44,3.456 3.024,9.072 5.04,12.816 z m -18.432,21.456 c 3.888,-3.024 8.064,-7.92 11.232,-12.24 v 6.768 h 29.808 v -9.504 c 2.88,5.472 6.48,10.944 9.792,14.976 z"
            style="-inkscape-font-specification:'Glow Sans SC Ultra-Bold Extra-Condensed';fill:url(#grad2)"
            id="path646" />
         <path
            d="m 195.55989,166.024 v -46.368 h -18.432 v 46.224 c 0,22.32 -2.88,51.264 -24.192,67.104 l 12.24,16.272 c 25.344,-19.44 30.384,-55.008 30.384,-83.232 z m 68.4,41.472 -16.848,-2.592 c -0.432,16.992 -0.72,23.04 -5.472,23.04 h -2.16 c -4.608,0 -3.888,-1.152 -3.888,-8.496 v -99.792 h -18.72 v 99.648 c 0,20.736 5.184,27.936 21.168,27.936 h 4.032 c 15.264,0 20.448,-11.088 21.888,-39.744 z"
            style="-inkscape-font-specification:'Glow Sans SC Ultra-Bold Extra-Condensed';fill:url(#grad2)"
            id="path648" />
         <path
            d="m 352.37578,179.416 h 25.488 v -21.168 h -25.488 V 114.04 h -18.72 v 44.208 h -27.072 v 21.168 h 27.072 v 69.84 h 18.72 z m -42.624,-44.064 c -4.752,-5.184 -14.976,-15.264 -20.736,-21.024 l -11.088,13.104 c 2.448,2.592 5.328,6.048 8.208,9.504 l 1.152,1.152 c 3.888,4.608 7.776,9.216 10.08,12.24 z m 8.928,84.672 c -1.584,-4.032 -4.608,-13.248 -5.472,-18.864 l -9.792,8.928 v -51.984 h -33.408 v 20.016 h 15.696 V 217 c 0,6.336 -4.32,11.664 -8.496,15.12 l 12.528,14.112 c 0.144,-0.144 6.192,-5.328 28.944,-26.208 z"
            style="-inkscape-font-specification:'Glow Sans SC Ultra-Bold Extra-Condensed';fill:url(#grad2)"
            id="path650" />
         <path
            d="m 414.00767,113.464 h -18.144 c 0,4.608 0,9.648 0.144,14.832 v 1.44 c 0.288,7.2 0.576,14.4 0.864,20.736 l -12.816,2.16 1.728,19.584 13.68,-2.016 c 0.288,2.88 0.576,5.904 0.864,8.784 v 1.584 c 0.144,0.72 0.144,1.44 0.288,2.16 l 0.144,1.584 c 0,1.44 0.144,2.88 0.288,4.464 l 0.144,1.44 c 0.72,7.632 1.584,14.976 3.024,20.88 -6.192,7.344 -12.96,14.256 -19.872,19.008 l 11.664,15.84 c 5.184,-4.176 10.944,-9.504 15.984,-15.264 4.608,10.512 10.944,17.136 18.576,17.136 10.944,0 17.424,-6.48 20.16,-35.568 l -14.832,-3.6 c -0.432,11.952 -2.016,19.008 -4.32,19.008 -2.88,0 -4.464,-4.896 -6.768,-12.384 7.776,-11.52 15.12,-26.784 20.16,-40.896 l -16.848,-5.904 c -2.592,7.632 -6.192,16.416 -10.08,23.328 -0.72,-4.032 -0.864,-8.928 -1.008,-13.824 v -1.584 c -0.144,-2.736 -0.288,-5.472 -0.576,-8.064 l 32.4,-5.04 -1.872,-19.296 -32.976,4.752 c 0,-5.04 0.144,-10.944 0.144,-16.848 v -1.44 c 0,-0.288 0,-0.576 0,-0.864 v -1.44 c 0,-0.72 0,-1.44 0,-2.16 v -1.152 c 4.752,6.048 11.952,15.264 15.12,20.016 l 12.816,-12.384 c -2.016,-2.592 -5.184,-6.192 -8.496,-9.936 l -1.152,-1.152 c -2.592,-3.024 -5.184,-5.904 -7.344,-8.064 l -10.944,10.368 c 0,-3.6 0,-7.056 -0.144,-10.224 z m 68.4,132.048 c 4.608,-3.168 6.624,-8.784 6.624,-18.864 V 114.76 h -17.856 v 111.888 c 0,2.304 0.144,3.024 -1.728,3.024 h -1.296 c -3.024,0 -9.072,0 -11.952,-0.144 l 1.008,19.872 c 11.088,0 20.448,-0.72 25.2,-3.888 z m -15.552,-116.64 h -17.424 v 79.488 h 17.424 z"
            style="-inkscape-font-specification:'Glow Sans SC Ultra-Bold Extra-Condensed';fill:url(#grad2)"
            id="path652" />
      </g>
   </g>
</svg>