<?xml version="1.0" encoding="UTF-8" standalone="no"?>
<svg
   width="512"
   height="512"
   viewBox="0 0 512 512"
   version="1.1"
   id="svg5"
   xmlns:xlink="http://www.w3.org/1999/xlink"
   xmlns="http://www.w3.org/2000/svg"
   xmlns:svg="http://www.w3.org/2000/svg">
   <defs
      id="defs7">
      <linearGradient
         id="grad2"
         x1="0%"
         y1="0%"
         x2="100%"
         y2="100%">
         <stop
            offset="0%"
            style="stop-color:#5BCEFA;stop-opacity:1"
            id="stop2" />
         <stop
            offset="60%"
            style="stop-color:#F5A9B8;stop-opacity:1"
            id="stop4" />
      </linearGradient>
   </defs>
  <g
     id="g15"
     transform="translate(-9.399835,71.34011)">
    <g
       aria-label="跨児計畫"
       id="text13">
      <path
         d="m 120.104,136.36 v -9.936 h -15.552 v 9.936 H 83.96 v 15.552 h 14.688 c -3.744,2.016 -8.784,3.888 -14.688,4.752 v 17.568 c 4.032,-1.008 7.632,-2.304 10.944,-3.6 V 181 h 34.992 v -10.368 c 3.168,1.44 6.768,2.592 10.656,3.6 v -17.568 c -5.904,-0.864 -10.944,-2.736 -14.688,-4.752 H 140.84 V 136.36 Z M 81.08,222.904 c 0,0 -2.304,1.152 -6.912,2.448 v -10.368 h 6.912 v -15.552 h -6.912 v -12.528 h 6.912 v -57.6 H 44.36 v 57.6 H 61.352 V 227.8 l -2.88,0.432 V 192.52 h -11.52 v 36.432 H 44.36 v 15.552 c 25.488,0 36.72,-6.048 36.72,-6.048 z M 59.912,171.352 v -26.496 h 5.616 v 26.496 z m 44.64,-5.904 c 3.312,-2.304 5.76,-4.752 7.776,-7.344 1.872,2.592 4.32,5.04 7.632,7.344 z m 36.288,21.456 h -54 v 15.552 h 5.328 L 89,223.912 h 36.144 c -0.432,6.048 -3.168,7.92 -7.92,7.92 h -9.648 v 12.672 h 9.648 c 15.84,0 23.616,-4.464 23.616,-22.32 V 208.36 h -33.552 l 0.864,-5.904 h 32.688 z"
         style="-inkscape-font-specification:'bananaslip plus, Normal';fill:url(#grad2)"
         id="path331" />
      <path
         id="path333"
         style="-inkscape-font-specification:'bananaslip plus, Normal';fill:url(#grad2)"
         d="m 203.51314,124.81516 c 0,0 -14.11196,3.74414 -43.91993,3.74414 v 73.8711 h 96.48047 v -70.99219 h -43.91992 v 15.55274 h 28.36719 v 12.48046 h -28.36719 v 14.92774 h 28.36719 v 12.47851 h -65.375 v -12.47851 h 28.36719 V 159.47141 H 175.14595 V 145.1179 c 17.71198,-1.008 28.36719,-3.31055 28.36719,-3.31055 z m -20.19336,81.96094 c 0,10.07999 -6.33579,16.27231 -23.75977,23.9043 l 7.19922,13.82422 c 19.43998,-7.77599 32.11328,-17.42454 32.11328,-37.72852 z m 28.80078,0 v 12.52735 c 0,17.85598 7.77525,25.20117 23.61523,25.20117 h 20.30469 v -15.55274 h -20.30469 c -5.32799,0 -8.06445,-2.16044 -8.06445,-9.64843 V 206.7761 Z" />
      <path
         d="m 354.82378,179.128 h 16.416 v -15.552 h -16.416 v -37.152 h -15.552 v 37.152 h -16.272 v 15.552 h 16.272 v 65.376 h 15.552 z m -40.464,-38.592 v -11.232 h -35.28 v 11.232 z m -39.6,5.616 v 15.552 h 43.92 v -15.552 z m 4.32,21.312 v 11.232 h 35.28 v -11.232 z m 35.28,28.512 v -11.232 h -35.28 v 11.232 z m -39.6,6.192 v 42.336 h 43.92 v -42.336 z m 15.552,26.784 V 217.72 h 12.816 v 11.232 z"
         style="-inkscape-font-specification:'bananaslip plus, Normal';fill:url(#grad2)"
         id="path335" />
      <path
         d="m 482.11967,181.432 v -8.496 h -36.144 v -2.88 h 36.144 v -11.952 h 4.32 v -15.552 h -4.32 v -11.808 h -36.144 v -4.32 h -15.552 v 4.32 h -36.144 v 11.232 h 36.144 v 4.176 h -40.464 v 8.496 h 40.464 v 4.176 h -36.144 v 11.232 h 36.144 v 2.88 h -36.144 v 8.496 h 36.144 v 2.88 h -40.464 v 11.52 h 96.48 v -11.52 h -40.464 v -2.88 z m -15.552,-39.456 v 4.176 h -20.592 v -4.176 z m 0,12.672 v 4.176 h -20.592 v -4.176 z m -72.288,75.456 h 87.84 v -31.392 h -87.84 z m 15.552,-19.584 v -3.456 h 20.592 v 3.456 z m 36.144,0 v -3.456 h 20.592 v 3.456 z m -36.144,11.232 v -3.456 h 20.592 v 3.456 z m 36.144,0 v -3.456 h 20.592 v 3.456 z m 40.464,22.752 v -11.52 h -96.48 v 11.52 z"
         style="-inkscape-font-specification:'bananaslip plus, Normal';fill:url(#grad2)"
         id="path337" />
    </g>
  </g>
</svg>
