<?xml version="1.0" encoding="UTF-8" standalone="no"?>
<svg
   width="512"
   height="512"
   viewBox="0 0 512 512"
   version="1.1"
   id="svg5"
   xmlns:xlink="http://www.w3.org/1999/xlink"
   xmlns="http://www.w3.org/2000/svg"
   xmlns:svg="http://www.w3.org/2000/svg">
   <defs
      id="defs7">
      <linearGradient
         id="grad2"
         x1="0%"
         y1="0%"
         x2="100%"
         y2="100%">
         <stop
            offset="0%"
            style="stop-color:#5BCEFA;stop-opacity:1"
            id="stop2" />
         <stop
            offset="60%"
            style="stop-color:#F5A9B8;stop-opacity:1"
            id="stop4" />
      </linearGradient>
   </defs>
   <g
      id="g15">
      <g
         aria-label="跨兒計畫"
         id="text13"
         transform="translate(-9.183835,74.856)">
         <path
            d="m 120.392,248.392 c 4.32,-0.576 7.92,-1.872 11.232,-5.472 3.456,-4.176 5.76,-14.688 7.2,-33.84 0.288,-2.448 0.576,-7.2 0.576,-7.2 h -29.088 l 1.296,-4.608 h 30.672 v -16.128 h -4.464 c 2.304,-4.752 7.92,-12.384 11.088,-15.84 C 143,160.696 137.24,151.912 133.352,143.272 h 13.392 v -18.72 h -28.8 c 0.288,-3.312 1.152,-6.768 1.584,-9.936 l -16.704,-1.872 c -0.288,3.744 -1.152,7.776 -1.872,11.808 h -16.56 v 18.72 h 10.656 c -3.312,7.056 -8.352,14.688 -13.824,19.584 V 118.36 h -37.44 v 50.256 h 14.4 v 52.416 l -1.44,0.72 V 177.4 H 43.208 v 47.376 l -4.464,1.008 3.312,18.432 c 6.624,-2.016 14.976,-4.32 23.76,-6.912 l 1.44,-0.288 c 0.72,-0.288 1.44,-0.432 2.16,-0.72 l 1.44,-0.432 2.88,-0.864 c 4.608,-1.296 9.072,-2.592 13.392,-4.032 l -2.016,-16.992 -13.104,3.6 V 198.712 H 81.8 v -17.136 h -9.792 v -12.96 h 8.496 c 2.448,3.456 6.192,9.36 7.488,12.528 h -2.016 v 16.128 H 96.2 c -1.728,7.488 -4.464,16.272 -6.192,22.176 l 15.84,2.88 1.44,-4.32 h 13.968 c -0.864,6.912 -2.016,11.232 -3.024,12.528 -1.44,1.296 -2.736,1.44 -4.608,1.44 -2.592,0 -9.504,-0.144 -12.384,-0.432 l 0.576,17.136 c 8.496,0.144 15.12,0.144 18.576,-0.288 z M 57.896,151.912 V 134.92 h 9.072 v 16.992 z m 48.672,7.632 c 2.592,-4.608 4.464,-11.52 6.336,-16.272 h 3.024 c 1.584,4.896 3.6,11.808 5.76,16.272 z m -18.288,21.6 c 3.456,-2.88 6.768,-6.912 9.504,-10.368 v 5.04 h 30.528 V 170.2 c 3.024,3.888 5.904,8.208 8.928,10.944 z"
            style="-inkscape-font-specification:'Glow Sans TC Ultra-Bold Extra-Condensed';fill:url(#grad2)"
            id="path376" />
         <path
            d="m 200.02389,193.528 h 12.96 v 29.232 c 0,17.568 4.464,24.336 22.608,24.336 h 4.464 c 15.408,0 20.448,-6.768 22.176,-31.824 l -16.128,-2.592 c -0.432,12.672 -0.72,15.264 -6.48,15.264 h -2.736 c -5.904,0 -5.904,-0.576 -5.904,-5.184 v -29.232 h 21.168 v -72.432 h -41.616 v 17.856 h 23.616 v 9.792 h -23.616 v 16.704 h 23.616 v 10.224 h -50.976 v -10.224 h 21.312 v -16.704 h -21.312 v -9.936 c 8.784,-2.88 19.152,-7.488 26.64,-12.24 l -13.968,-13.824 c -4.896,3.888 -12.24,8.784 -19.728,11.952 l -9.792,-3.312 v 72.144 h 16.128 c -1.296,17.136 -5.472,30.672 -27.504,37.008 l 7.2,19.008 c 29.952,-10.512 36,-31.104 37.872,-56.016 z"
            style="-inkscape-font-specification:'Glow Sans TC Ultra-Bold Extra-Condensed';fill:url(#grad2)"
            id="path378" />
         <path
            d="m 355.54378,182.152 h 23.472 v -20.016 h -23.472 V 114.04 h -17.856 v 48.096 h -22.32 v 20.016 h 22.32 v 67.104 h 17.856 z m -42.336,-64.8 h -37.728 v 14.976 h 37.728 z m 4.32,20.304 h -48.24 v 15.84 h 48.24 z m -4.608,20.88 h -38.16 v 15.12 h 38.16 z m 0,20.016 h -38.16 v 14.976 h 38.16 z m -0.144,20.16 h -38.448 v 44.784 h 38.448 z m -23.76,28.944 v -13.248 h 8.64 v 13.248 z"
            style="-inkscape-font-specification:'Glow Sans TC Ultra-Bold Extra-Condensed';fill:url(#grad2)"
            id="path380" />
         <path
            d="m 491.62367,178.696 h -45.504 v -3.888 h 38.016 V 164.44 h -38.016 v -3.744 h 33.264 v -14.4 h 11.232 v -10.512 h -11.232 v -14.112 h -33.264 v -8.352 h -17.136 v 8.352 h -30.384 v 10.08 h 30.384 v 4.032 h -41.904 v 10.512 h 41.904 v 4.032 h -31.104 v 10.368 h 31.104 v 3.744 h -34.848 v 10.368 h 34.848 v 3.888 h -42.48 v 12.096 h 105.12 z m -45.504,-42.912 v -4.032 h 16.272 v 4.032 z m 0,14.544 v -4.032 h 16.272 v 4.032 z m 33.84,44.352 h -81.36 v 34.848 h 81.36 z m -64.512,12.96 v -3.888 h 14.688 v 3.888 z m 30.24,0 v -3.888 h 16.416 v 3.888 z m -30.24,12.672 v -3.888 h 14.688 v 3.888 z m 30.24,0 v -3.888 h 16.416 v 3.888 z m 45.792,12.528 h -105.264 v 12.816 h 105.264 z"
            style="-inkscape-font-specification:'Glow Sans TC Ultra-Bold Extra-Condensed';fill:url(#grad2)"
            id="path382" />
      </g>
   </g>
</svg>